<?xml version="1.0" standalone="no"?>
 <!DOCTYPE svg PUBLIC "-//W3C//DTD SVG 1.1//EN" 
 "http://www.w3.org/Graphics/SVG/1.1/DTD/svg11.dtd"> 
<svg
  xmlns:svg="http://www.w3.org/2000/svg"
  xmlns="http://www.w3.org/2000/svg"
  xmlns:xlink="http://www.w3.org/1999/xlink"
  version="1.1"
  width="29.700220cm" height="21.000720cm" viewBox="0 0 116930 82680">
<title>SVG Picture created as phone-B_Cu.svg date 2022/04/22 23:41:29 </title>
  <desc>Picture generated by PCBNEW </desc>
<g style="fill:#000000; fill-opacity:1;stroke:#000000; stroke-opacity:1;
stroke-linecap:round; stroke-linejoin:round;"
 transform="translate(0 0) scale(1 1)">
</g>
<g style="fill:#000000; fill-opacity:0.0; 
stroke:#000000; stroke-width:-0.000393701; stroke-opacity:1; 
stroke-linecap:round; stroke-linejoin:round;">
</g>
<g style="fill:#000000; fill-opacity:1.0; 
stroke:#000000; stroke-width:7.87402; stroke-opacity:1; 
stroke-linecap:round; stroke-linejoin:round;">
<rect x="43033.5" y="18706.3" width="24560" height="13355.5" rx="0" />
</g>
<g style="fill:#FFFFFF; fill-opacity:1.0; 
stroke:#FFFFFF; stroke-width:7.87402; stroke-opacity:1; 
stroke-linecap:round; stroke-linejoin:round;">
<g >
</g>
<g >
</g>
<g style="fill:#FFFFFF; fill-opacity:1.0; 
stroke:#FFFFFF; stroke-width:7.87402; stroke-opacity:1; 
stroke-linecap:round; stroke-linejoin:round;">
</g>
<g style="fill:#FFFFFF; fill-opacity:1.0; 
stroke:#FFFFFF; stroke-width:0; stroke-opacity:1; 
stroke-linecap:round; stroke-linejoin:round;">
<path style="fill:#FFFFFF; fill-opacity:1.0; 
stroke:#FFFFFF; stroke-width:0; stroke-opacity:1; 
stroke-linecap:round; stroke-linejoin:round;fill-rule:evenodd;"
d="M 57607.1,25815
57616.6,25816.5
57626,25818.8
57635.1,25822.1
57643.8,25826.2
57652.1,25831.2
57659.9,25836.9
57667,25843.4
57673.5,25850.6
57679.3,25858.3
57684.2,25866.6
57688.4,25875.3
57691.6,25884.4
57694,25893.8
57695.4,25903.3
57695.9,25913
57695.9,26287
57695.4,26296.7
57694,26306.2
57691.6,26315.6
57688.4,26324.7
57684.2,26333.4
57679.3,26341.7
57673.5,26349.4
57667,26356.6
57659.9,26363.1
57652.1,26368.8
57643.8,26373.8
57635.1,26377.9
57626,26381.2
57616.6,26383.5
57607.1,26385
57597.4,26385.4
57400.6,26385.4
57390.9,26385
57381.4,26383.5
57372,26381.2
57362.9,26377.9
57354.2,26373.8
57345.9,26368.8
57338.2,26363.1
57331,26356.6
57324.5,26349.4
57318.8,26341.7
57313.8,26333.4
57309.7,26324.7
57306.4,26315.6
57304.1,26306.2
57302.6,26296.7
57302.2,26287
57302.2,25913
57302.6,25903.3
57304.1,25893.8
57306.4,25884.4
57309.7,25875.3
57313.8,25866.6
57318.8,25858.3
57324.5,25850.6
57331,25843.4
57338.2,25836.9
57345.9,25831.2
57354.2,25826.2
57362.9,25822.1
57372,25818.8
57381.4,25816.5
57390.9,25815
57400.6,25814.6
57597.4,25814.6
Z" /> 
<path style="fill:#FFFFFF; fill-opacity:1.0; 
stroke:#FFFFFF; stroke-width:0; stroke-opacity:1; 
stroke-linecap:round; stroke-linejoin:round;fill-rule:evenodd;"
d="M 56859.1,25815
56868.6,25816.5
56878,25818.8
56887.1,25822.1
56895.8,25826.2
56904.1,25831.2
56911.8,25836.9
56919,25843.4
56925.5,25850.6
56931.2,25858.3
56936.2,25866.6
56940.3,25875.3
56943.6,25884.4
56945.9,25893.8
56947.4,25903.3
56947.8,25913
56947.8,26287
56947.4,26296.7
56945.9,26306.2
56943.6,26315.6
56940.3,26324.7
56936.2,26333.4
56931.2,26341.7
56925.5,26349.4
56919,26356.6
56911.8,26363.1
56904.1,26368.8
56895.8,26373.8
56887.1,26377.9
56878,26381.2
56868.6,26383.5
56859.1,26385
56849.4,26385.4
56652.6,26385.4
56642.9,26385
56633.4,26383.5
56624,26381.2
56614.9,26377.9
56606.2,26373.8
56597.9,26368.8
56590.1,26363.1
56583,26356.6
56576.5,26349.4
56570.7,26341.7
56565.8,26333.4
56561.6,26324.7
56558.4,26315.6
56556,26306.2
56554.6,26296.7
56554.1,26287
56554.1,25913
56554.6,25903.3
56556,25893.8
56558.4,25884.4
56561.6,25875.3
56565.8,25866.6
56570.7,25858.3
56576.5,25850.6
56583,25843.4
56590.1,25836.9
56597.9,25831.2
56606.2,25826.2
56614.9,25822.1
56624,25818.8
56633.4,25816.5
56642.9,25815
56652.6,25814.6
56849.4,25814.6
Z" /> 
</g>
<g >
</g>
<g >
</g>
<g >
</g>
<g >
</g>
<g style="fill:#FFFFFF; fill-opacity:1.0; 
stroke:#FFFFFF; stroke-width:0; stroke-opacity:1; 
stroke-linecap:round; stroke-linejoin:round;">
<path style="fill:#FFFFFF; fill-opacity:1.0; 
stroke:#FFFFFF; stroke-width:0; stroke-opacity:1; 
stroke-linecap:round; stroke-linejoin:round;fill-rule:evenodd;"
d="M 57189.8,24265.8
57195.6,24266.7
57201.2,24268.1
57206.7,24270
57211.9,24272.5
57216.9,24275.5
57221.5,24279
57225.8,24282.8
57229.7,24287.1
57233.2,24291.8
57236.1,24296.8
57238.6,24302
57240.6,24307.5
57242,24313.1
57242.8,24318.8
57243.1,24324.6
57243.1,24787.2
57242.8,24793
57242,24798.7
57240.6,24804.3
57238.6,24809.8
57236.1,24815
57233.2,24820
57229.7,24824.7
57225.8,24829
57221.5,24832.9
57216.9,24836.3
57211.9,24839.3
57206.7,24841.8
57201.2,24843.7
57195.6,24845.1
57189.8,24846
57184.1,24846.3
57065.9,24846.3
57060.2,24846
57054.4,24845.1
57048.8,24843.7
57043.3,24841.8
57038.1,24839.3
57033.1,24836.3
57028.5,24832.9
57024.2,24829
57020.3,24824.7
57016.8,24820
57013.9,24815
57011.4,24809.8
57009.4,24804.3
57008,24798.7
57007.2,24793
57006.9,24787.2
57006.9,24324.6
57007.2,24318.8
57008,24313.1
57009.4,24307.5
57011.4,24302
57013.9,24296.8
57016.8,24291.8
57020.3,24287.1
57024.2,24282.8
57028.5,24279
57033.1,24275.5
57038.1,24272.5
57043.3,24270
57048.8,24268.1
57054.4,24266.7
57060.2,24265.8
57065.9,24265.6
57184.1,24265.6
Z" /> 
<path style="fill:#FFFFFF; fill-opacity:1.0; 
stroke:#FFFFFF; stroke-width:0; stroke-opacity:1; 
stroke-linecap:round; stroke-linejoin:round;fill-rule:evenodd;"
d="M 56815.8,25004
56821.6,25004.9
56827.2,25006.3
56832.6,25008.2
56837.9,25010.7
56842.8,25013.7
56847.5,25017.1
56851.8,25021
56855.7,25025.3
56859.1,25030
56862.1,25035
56864.6,25040.2
56866.6,25045.7
56868,25051.3
56868.8,25057
56869.1,25062.8
56869.1,25525.4
56868.8,25531.2
56868,25536.9
56866.6,25542.5
56864.6,25548
56862.1,25553.2
56859.1,25558.2
56855.7,25562.9
56851.8,25567.2
56847.5,25571
56842.8,25574.5
56837.9,25577.5
56832.6,25580
56827.2,25581.9
56821.6,25583.3
56815.8,25584.2
56810,25584.4
56691.9,25584.4
56686.1,25584.2
56680.4,25583.3
56674.8,25581.9
56669.3,25580
56664.1,25577.5
56659.1,25574.5
56654.5,25571
56650.2,25567.2
56646.3,25562.9
56642.8,25558.2
56639.8,25553.2
56637.4,25548
56635.4,25542.5
56634,25536.9
56633.2,25531.2
56632.9,25525.4
56632.9,25062.8
56633.2,25057
56634,25051.3
56635.4,25045.7
56637.4,25040.2
56639.8,25035
56642.8,25030
56646.3,25025.3
56650.2,25021
56654.5,25017.1
56659.1,25013.7
56664.1,25010.7
56669.3,25008.2
56674.8,25006.3
56680.4,25004.9
56686.1,25004
56691.9,25003.7
56810,25003.7
Z" /> 
<path style="fill:#FFFFFF; fill-opacity:1.0; 
stroke:#FFFFFF; stroke-width:0; stroke-opacity:1; 
stroke-linecap:round; stroke-linejoin:round;fill-rule:evenodd;"
d="M 57563.9,25004
57569.6,25004.9
57575.2,25006.3
57580.7,25008.2
57585.9,25010.7
57590.9,25013.7
57595.5,25017.1
57599.8,25021
57603.7,25025.3
57607.2,25030
57610.2,25035
57612.6,25040.2
57614.6,25045.7
57616,25051.3
57616.8,25057
57617.1,25062.8
57617.1,25525.4
57616.8,25531.2
57616,25536.9
57614.6,25542.5
57612.6,25548
57610.2,25553.2
57607.2,25558.2
57603.7,25562.9
57599.8,25567.2
57595.5,25571
57590.9,25574.5
57585.9,25577.5
57580.7,25580
57575.2,25581.9
57569.6,25583.3
57563.9,25584.2
57558.1,25584.4
57440,25584.4
57434.2,25584.2
57428.4,25583.3
57422.8,25581.9
57417.4,25580
57412.1,25577.5
57407.2,25574.5
57402.5,25571
57398.2,25567.2
57394.3,25562.9
57390.9,25558.2
57387.9,25553.2
57385.4,25548
57383.4,25542.5
57382,25536.9
57381.2,25531.2
57380.9,25525.4
57380.9,25062.8
57381.2,25057
57382,25051.3
57383.4,25045.7
57385.4,25040.2
57387.9,25035
57390.9,25030
57394.3,25025.3
57398.2,25021
57402.5,25017.1
57407.2,25013.7
57412.1,25010.7
57417.4,25008.2
57422.8,25006.3
57428.4,25004.9
57434.2,25004
57440,25003.7
57558.1,25003.7
Z" /> 
</g>
<g >
</g>
<g style="fill:#FFFFFF; fill-opacity:1.0; 
stroke:#FFFFFF; stroke-width:0; stroke-opacity:1; 
stroke-linecap:round; stroke-linejoin:round;">
<path style="fill:#FFFFFF; fill-opacity:1.0; 
stroke:#FFFFFF; stroke-width:0; stroke-opacity:1; 
stroke-linecap:round; stroke-linejoin:round;fill-rule:evenodd;"
d="M 59303,26869.7
59308.2,26870.5
59313.3,26871.8
59318.2,26873.5
59322.9,26875.8
59327.4,26878.4
59331.6,26881.6
59335.4,26885.1
59338.9,26888.9
59342,26893.1
59344.7,26897.6
59346.9,26902.3
59348.7,26907.2
59350,26912.3
59350.7,26917.4
59351,26922.6
59351,27028.9
59350.7,27034.1
59350,27039.3
59348.7,27044.4
59346.9,27049.3
59344.7,27054
59342,27058.5
59338.9,27062.7
59335.4,27066.5
59331.6,27070
59327.4,27073.1
59322.9,27075.8
59318.2,27078
59313.3,27079.8
59308.2,27081.1
59303,27081.8
59297.8,27082.1
59152.2,27082.1
59147,27081.8
59141.8,27081.1
59136.7,27079.8
59131.8,27078
59127.1,27075.8
59122.6,27073.1
59118.4,27070
59114.6,27066.5
59111.1,27062.7
59108,27058.5
59105.3,27054
59103.1,27049.3
59101.3,27044.4
59100,27039.3
59099.3,27034.1
59099,27028.9
59099,26922.6
59099.3,26917.4
59100,26912.3
59101.3,26907.2
59103.1,26902.3
59105.3,26897.6
59108,26893.1
59111.1,26888.9
59114.6,26885.1
59118.4,26881.6
59122.6,26878.4
59127.1,26875.8
59131.8,26873.5
59136.7,26871.8
59141.8,26870.5
59147,26869.7
59152.2,26869.5
59297.8,26869.5
Z" /> 
<path style="fill:#FFFFFF; fill-opacity:1.0; 
stroke:#FFFFFF; stroke-width:0; stroke-opacity:1; 
stroke-linecap:round; stroke-linejoin:round;fill-rule:evenodd;"
d="M 59303,26468.2
59308.2,26468.9
59313.3,26470.2
59318.2,26472
59322.9,26474.2
59327.4,26476.9
59331.6,26480
59335.4,26483.5
59338.9,26487.3
59342,26491.5
59344.7,26496
59346.9,26500.7
59348.7,26505.6
59350,26510.7
59350.7,26515.9
59351,26521.1
59351,26627.4
59350.7,26632.6
59350,26637.7
59348.7,26642.8
59346.9,26647.7
59344.7,26652.4
59342,26656.9
59338.9,26661.1
59335.4,26664.9
59331.6,26668.4
59327.4,26671.6
59322.9,26674.2
59318.2,26676.5
59313.3,26678.2
59308.2,26679.5
59303,26680.3
59297.8,26680.5
59152.2,26680.5
59147,26680.3
59141.8,26679.5
59136.7,26678.2
59131.8,26676.5
59127.1,26674.2
59122.6,26671.6
59118.4,26668.4
59114.6,26664.9
59111.1,26661.1
59108,26656.9
59105.3,26652.4
59103.1,26647.7
59101.3,26642.8
59100,26637.7
59099.3,26632.6
59099,26627.4
59099,26521.1
59099.3,26515.9
59100,26510.7
59101.3,26505.6
59103.1,26500.7
59105.3,26496
59108,26491.5
59111.1,26487.3
59114.6,26483.5
59118.4,26480
59122.6,26476.9
59127.1,26474.2
59131.8,26472
59136.7,26470.2
59141.8,26468.9
59147,26468.2
59152.2,26467.9
59297.8,26467.9
Z" /> 
</g>
<g >
</g>
<g style="fill:#FFFFFF; fill-opacity:1.0; 
stroke:#FFFFFF; stroke-width:0; stroke-opacity:1; 
stroke-linecap:round; stroke-linejoin:round;">
<path style="fill:#FFFFFF; fill-opacity:1.0; 
stroke:#FFFFFF; stroke-width:0; stroke-opacity:1; 
stroke-linecap:round; stroke-linejoin:round;fill-rule:evenodd;"
d="M 59303,26094.7
59308.2,26095.5
59313.3,26096.8
59318.2,26098.5
59322.9,26100.8
59327.4,26103.4
59331.6,26106.6
59335.4,26110.1
59338.9,26113.9
59342,26118.1
59344.7,26122.6
59346.9,26127.3
59348.7,26132.2
59350,26137.3
59350.7,26142.4
59351,26147.6
59351,26253.9
59350.7,26259.1
59350,26264.3
59348.7,26269.4
59346.9,26274.3
59344.7,26279
59342,26283.5
59338.9,26287.7
59335.4,26291.5
59331.6,26295
59327.4,26298.1
59322.9,26300.8
59318.2,26303
59313.3,26304.8
59308.2,26306.1
59303,26306.8
59297.8,26307.1
59152.2,26307.1
59147,26306.8
59141.8,26306.1
59136.7,26304.8
59131.8,26303
59127.1,26300.8
59122.6,26298.1
59118.4,26295
59114.6,26291.5
59111.1,26287.7
59108,26283.5
59105.3,26279
59103.1,26274.3
59101.3,26269.4
59100,26264.3
59099.3,26259.1
59099,26253.9
59099,26147.6
59099.3,26142.4
59100,26137.3
59101.3,26132.2
59103.1,26127.3
59105.3,26122.6
59108,26118.1
59111.1,26113.9
59114.6,26110.1
59118.4,26106.6
59122.6,26103.4
59127.1,26100.8
59131.8,26098.5
59136.7,26096.8
59141.8,26095.5
59147,26094.7
59152.2,26094.5
59297.8,26094.5
Z" /> 
<path style="fill:#FFFFFF; fill-opacity:1.0; 
stroke:#FFFFFF; stroke-width:0; stroke-opacity:1; 
stroke-linecap:round; stroke-linejoin:round;fill-rule:evenodd;"
d="M 59303,25693.2
59308.2,25693.9
59313.3,25695.2
59318.2,25697
59322.9,25699.2
59327.4,25701.9
59331.6,25705
59335.4,25708.5
59338.9,25712.3
59342,25716.5
59344.7,25721
59346.9,25725.7
59348.7,25730.6
59350,25735.7
59350.7,25740.9
59351,25746.1
59351,25852.4
59350.7,25857.6
59350,25862.7
59348.7,25867.8
59346.9,25872.7
59344.7,25877.4
59342,25881.9
59338.9,25886.1
59335.4,25889.9
59331.6,25893.4
59327.4,25896.6
59322.9,25899.2
59318.2,25901.5
59313.3,25903.2
59308.2,25904.5
59303,25905.3
59297.8,25905.5
59152.2,25905.5
59147,25905.3
59141.8,25904.5
59136.7,25903.2
59131.8,25901.5
59127.1,25899.2
59122.6,25896.6
59118.4,25893.4
59114.6,25889.9
59111.1,25886.1
59108,25881.9
59105.3,25877.4
59103.1,25872.7
59101.3,25867.8
59100,25862.7
59099.3,25857.6
59099,25852.4
59099,25746.1
59099.3,25740.9
59100,25735.7
59101.3,25730.6
59103.1,25725.7
59105.3,25721
59108,25716.5
59111.1,25712.3
59114.6,25708.5
59118.4,25705
59122.6,25701.9
59127.1,25699.2
59131.8,25697
59136.7,25695.2
59141.8,25693.9
59147,25693.2
59152.2,25692.9
59297.8,25692.9
Z" /> 
</g>
<g >
</g>
<g >
</g>
<g >
</g>
<g >
</g>
<g >
</g>
<g >
</g>
<g >
</g>
<g >
</g>
<g >
</g>
<g >
</g>
<g style="fill:#FFFFFF; fill-opacity:1.0; 
stroke:#FFFFFF; stroke-width:0; stroke-opacity:1; 
stroke-linecap:round; stroke-linejoin:round;">
<path style="fill:#FFFFFF; fill-opacity:1.0; 
stroke:#FFFFFF; stroke-width:0; stroke-opacity:1; 
stroke-linecap:round; stroke-linejoin:round;fill-rule:evenodd;"
d="M 60889.6,23158.1
60889.6,22291.9
61480.1,22291.9
61480.1,23158.1
Z" /> 
<path style="fill:#FFFFFF; fill-opacity:1.0; 
stroke:#FFFFFF; stroke-width:0; stroke-opacity:1; 
stroke-linecap:round; stroke-linejoin:round;fill-rule:evenodd;"
d="M 58369.9,23158.1
58369.9,22291.9
58960.4,22291.9
58960.4,23158.1
Z" /> 
</g>
<g >
</g>
<g style="fill:#FFFFFF; fill-opacity:1.0; 
stroke:#FFFFFF; stroke-width:0; stroke-opacity:1; 
stroke-linecap:round; stroke-linejoin:round;">
<circle cx="64950" cy="25925" r="196.85" /> 
<path style="fill:#FFFFFF; fill-opacity:1.0; 
stroke:#FFFFFF; stroke-width:0; stroke-opacity:1; 
stroke-linecap:round; stroke-linejoin:round;fill-rule:evenodd;"
d="M 64753.1,25621.9
64753.1,25228.1
65146.9,25228.1
65146.9,25621.9
Z" /> 
</g>
<g >
</g>
<g style="fill:#FFFFFF; fill-opacity:1.0; 
stroke:#FFFFFF; stroke-width:0; stroke-opacity:1; 
stroke-linecap:round; stroke-linejoin:round;">
</g>
<g style="fill:#FFFFFF; fill-opacity:1.0; 
stroke:#FFFFFF; stroke-width:748.031; stroke-opacity:1; 
stroke-linecap:round; stroke-linejoin:round;">
</g>
<g style="fill:#FFFFFF; fill-opacity:0.0; 
stroke:#FFFFFF; stroke-width:748.031; stroke-opacity:1; 
stroke-linecap:round; stroke-linejoin:round;">
<path d="M52531 22880
L51901 22880
" />
<path d="M52531 27369
L51901 27369
" />
</g>
<g >
</g>
<g >
</g>
<g style="fill:#FFFFFF; fill-opacity:0.0; 
stroke:#FFFFFF; stroke-width:748.031; stroke-opacity:1; 
stroke-linecap:round; stroke-linejoin:round;">
</g>
<g style="fill:#FFFFFF; fill-opacity:0.0; 
stroke:#FFFFFF; stroke-width:0; stroke-opacity:1; 
stroke-linecap:round; stroke-linejoin:round;">
</g>
<g style="fill:#FFFFFF; fill-opacity:1.0; 
stroke:#FFFFFF; stroke-width:0; stroke-opacity:1; 
stroke-linecap:round; stroke-linejoin:round;">
<path style="fill:#FFFFFF; fill-opacity:1.0; 
stroke:#FFFFFF; stroke-width:0; stroke-opacity:1; 
stroke-linecap:round; stroke-linejoin:round;fill-rule:evenodd;"
d="M 62654.3,25254.7
61945.7,25254.7
61945.7,24270.5
62654.3,24270.5
Z" /> 
<path style="fill:#FFFFFF; fill-opacity:1.0; 
stroke:#FFFFFF; stroke-width:0; stroke-opacity:1; 
stroke-linecap:round; stroke-linejoin:round;fill-rule:evenodd;"
d="M 62654.3,26829.5
61945.7,26829.5
61945.7,25845.3
62654.3,25845.3
Z" /> 
</g>
<g >
</g>
<g style="fill:#FFFFFF; fill-opacity:1.0; 
stroke:#FFFFFF; stroke-width:0; stroke-opacity:1; 
stroke-linecap:round; stroke-linejoin:round;">
<path style="fill:#FFFFFF; fill-opacity:1.0; 
stroke:#FFFFFF; stroke-width:0; stroke-opacity:1; 
stroke-linecap:round; stroke-linejoin:round;fill-rule:evenodd;"
d="M 61339.8,24392
61345.6,24392.9
61351.2,24394.3
61356.7,24396.2
61361.9,24398.7
61366.9,24401.7
61371.5,24405.1
61375.8,24409
61379.7,24413.3
61383.2,24418
61386.1,24422.9
61388.6,24428.2
61390.6,24433.6
61392,24439.3
61392.8,24445
61393.1,24450.8
61393.1,25021.7
61392.8,25027.4
61392,25033.2
61390.6,25038.8
61388.6,25044.3
61386.1,25049.5
61383.2,25054.5
61379.7,25059.1
61375.8,25063.4
61371.5,25067.3
61366.9,25070.8
61361.9,25073.7
61356.7,25076.2
61351.2,25078.2
61345.6,25079.6
61339.8,25080.4
61334.1,25080.7
61215.9,25080.7
61210.2,25080.4
61204.4,25079.6
61198.8,25078.2
61193.3,25076.2
61188.1,25073.7
61183.1,25070.8
61178.5,25067.3
61174.2,25063.4
61170.3,25059.1
61166.8,25054.5
61163.9,25049.5
61161.4,25044.3
61159.4,25038.8
61158,25033.2
61157.2,25027.4
61156.9,25021.7
61156.9,24450.8
61157.2,24445
61158,24439.3
61159.4,24433.6
61161.4,24428.2
61163.9,24422.9
61166.8,24418
61170.3,24413.3
61174.2,24409
61178.5,24405.1
61183.1,24401.7
61188.1,24398.7
61193.3,24396.2
61198.8,24394.3
61204.4,24392.9
61210.2,24392
61215.9,24391.7
61334.1,24391.7
Z" /> 
<path style="fill:#FFFFFF; fill-opacity:1.0; 
stroke:#FFFFFF; stroke-width:0; stroke-opacity:1; 
stroke-linecap:round; stroke-linejoin:round;fill-rule:evenodd;"
d="M 60839.8,24392
60845.6,24392.9
60851.2,24394.3
60856.7,24396.2
60861.9,24398.7
60866.9,24401.7
60871.5,24405.1
60875.8,24409
60879.7,24413.3
60883.2,24418
60886.1,24422.9
60888.6,24428.2
60890.6,24433.6
60892,24439.3
60892.8,24445
60893.1,24450.8
60893.1,25021.7
60892.8,25027.4
60892,25033.2
60890.6,25038.8
60888.6,25044.3
60886.1,25049.5
60883.2,25054.5
60879.7,25059.1
60875.8,25063.4
60871.5,25067.3
60866.9,25070.8
60861.9,25073.7
60856.7,25076.2
60851.2,25078.2
60845.6,25079.6
60839.8,25080.4
60834.1,25080.7
60715.9,25080.7
60710.2,25080.4
60704.4,25079.6
60698.8,25078.2
60693.3,25076.2
60688.1,25073.7
60683.1,25070.8
60678.5,25067.3
60674.2,25063.4
60670.3,25059.1
60666.8,25054.5
60663.9,25049.5
60661.4,25044.3
60659.4,25038.8
60658,25033.2
60657.2,25027.4
60656.9,25021.7
60656.9,24450.8
60657.2,24445
60658,24439.3
60659.4,24433.6
60661.4,24428.2
60663.9,24422.9
60666.8,24418
60670.3,24413.3
60674.2,24409
60678.5,24405.1
60683.1,24401.7
60688.1,24398.7
60693.3,24396.2
60698.8,24394.3
60704.4,24392.9
60710.2,24392
60715.9,24391.7
60834.1,24391.7
Z" /> 
<path style="fill:#FFFFFF; fill-opacity:1.0; 
stroke:#FFFFFF; stroke-width:0; stroke-opacity:1; 
stroke-linecap:round; stroke-linejoin:round;fill-rule:evenodd;"
d="M 60339.8,24392
60345.6,24392.9
60351.2,24394.3
60356.7,24396.2
60361.9,24398.7
60366.9,24401.7
60371.5,24405.1
60375.8,24409
60379.7,24413.3
60383.2,24418
60386.1,24422.9
60388.6,24428.2
60390.6,24433.6
60392,24439.3
60392.8,24445
60393.1,24450.8
60393.1,25021.7
60392.8,25027.4
60392,25033.2
60390.6,25038.8
60388.6,25044.3
60386.1,25049.5
60383.2,25054.5
60379.7,25059.1
60375.8,25063.4
60371.5,25067.3
60366.9,25070.8
60361.9,25073.7
60356.7,25076.2
60351.2,25078.2
60345.6,25079.6
60339.8,25080.4
60334.1,25080.7
60215.9,25080.7
60210.2,25080.4
60204.4,25079.6
60198.8,25078.2
60193.3,25076.2
60188.1,25073.7
60183.1,25070.8
60178.5,25067.3
60174.2,25063.4
60170.3,25059.1
60166.8,25054.5
60163.9,25049.5
60161.4,25044.3
60159.4,25038.8
60158,25033.2
60157.2,25027.4
60156.9,25021.7
60156.9,24450.8
60157.2,24445
60158,24439.3
60159.4,24433.6
60161.4,24428.2
60163.9,24422.9
60166.8,24418
60170.3,24413.3
60174.2,24409
60178.5,24405.1
60183.1,24401.7
60188.1,24398.7
60193.3,24396.2
60198.8,24394.3
60204.4,24392.9
60210.2,24392
60215.9,24391.7
60334.1,24391.7
Z" /> 
<path style="fill:#FFFFFF; fill-opacity:1.0; 
stroke:#FFFFFF; stroke-width:0; stroke-opacity:1; 
stroke-linecap:round; stroke-linejoin:round;fill-rule:evenodd;"
d="M 59839.8,24392
59845.6,24392.9
59851.2,24394.3
59856.7,24396.2
59861.9,24398.7
59866.9,24401.7
59871.5,24405.1
59875.8,24409
59879.7,24413.3
59883.2,24418
59886.1,24422.9
59888.6,24428.2
59890.6,24433.6
59892,24439.3
59892.8,24445
59893.1,24450.8
59893.1,25021.7
59892.8,25027.4
59892,25033.2
59890.6,25038.8
59888.6,25044.3
59886.1,25049.5
59883.2,25054.5
59879.7,25059.1
59875.8,25063.4
59871.5,25067.3
59866.9,25070.8
59861.9,25073.7
59856.7,25076.2
59851.2,25078.2
59845.6,25079.6
59839.8,25080.4
59834.1,25080.7
59715.9,25080.7
59710.2,25080.4
59704.4,25079.6
59698.8,25078.2
59693.3,25076.2
59688.1,25073.7
59683.1,25070.8
59678.5,25067.3
59674.2,25063.4
59670.3,25059.1
59666.8,25054.5
59663.9,25049.5
59661.4,25044.3
59659.4,25038.8
59658,25033.2
59657.2,25027.4
59656.9,25021.7
59656.9,24450.8
59657.2,24445
59658,24439.3
59659.4,24433.6
59661.4,24428.2
59663.9,24422.9
59666.8,24418
59670.3,24413.3
59674.2,24409
59678.5,24405.1
59683.1,24401.7
59688.1,24398.7
59693.3,24396.2
59698.8,24394.3
59704.4,24392.9
59710.2,24392
59715.9,24391.7
59834.1,24391.7
Z" /> 
<path style="fill:#FFFFFF; fill-opacity:1.0; 
stroke:#FFFFFF; stroke-width:0; stroke-opacity:1; 
stroke-linecap:round; stroke-linejoin:round;fill-rule:evenodd;"
d="M 59839.8,26419.6
59845.6,26420.4
59851.2,26421.8
59856.7,26423.8
59861.9,26426.3
59866.9,26429.2
59871.5,26432.7
59875.8,26436.6
59879.7,26440.9
59883.2,26445.5
59886.1,26450.5
59888.6,26455.7
59890.6,26461.2
59892,26466.8
59892.8,26472.6
59893.1,26478.3
59893.1,27049.2
59892.8,27055
59892,27060.7
59890.6,27066.4
59888.6,27071.8
59886.1,27077.1
59883.2,27082
59879.7,27086.7
59875.8,27091
59871.5,27094.9
59866.9,27098.3
59861.9,27101.3
59856.7,27103.8
59851.2,27105.7
59845.6,27107.1
59839.8,27108
59834.1,27108.3
59715.9,27108.3
59710.2,27108
59704.4,27107.1
59698.8,27105.7
59693.3,27103.8
59688.1,27101.3
59683.1,27098.3
59678.5,27094.9
59674.2,27091
59670.3,27086.7
59666.8,27082
59663.9,27077.1
59661.4,27071.8
59659.4,27066.4
59658,27060.7
59657.2,27055
59656.9,27049.2
59656.9,26478.3
59657.2,26472.6
59658,26466.8
59659.4,26461.2
59661.4,26455.7
59663.9,26450.5
59666.8,26445.5
59670.3,26440.9
59674.2,26436.6
59678.5,26432.7
59683.1,26429.2
59688.1,26426.3
59693.3,26423.8
59698.8,26421.8
59704.4,26420.4
59710.2,26419.6
59715.9,26419.3
59834.1,26419.3
Z" /> 
<path style="fill:#FFFFFF; fill-opacity:1.0; 
stroke:#FFFFFF; stroke-width:0; stroke-opacity:1; 
stroke-linecap:round; stroke-linejoin:round;fill-rule:evenodd;"
d="M 60339.8,26419.6
60345.6,26420.4
60351.2,26421.8
60356.7,26423.8
60361.9,26426.3
60366.9,26429.2
60371.5,26432.7
60375.8,26436.6
60379.7,26440.9
60383.2,26445.5
60386.1,26450.5
60388.6,26455.7
60390.6,26461.2
60392,26466.8
60392.8,26472.6
60393.1,26478.3
60393.1,27049.2
60392.8,27055
60392,27060.7
60390.6,27066.4
60388.6,27071.8
60386.1,27077.1
60383.2,27082
60379.7,27086.7
60375.8,27091
60371.5,27094.9
60366.9,27098.3
60361.9,27101.3
60356.7,27103.8
60351.2,27105.7
60345.6,27107.1
60339.8,27108
60334.1,27108.3
60215.9,27108.3
60210.2,27108
60204.4,27107.1
60198.8,27105.7
60193.3,27103.8
60188.1,27101.3
60183.1,27098.3
60178.5,27094.9
60174.2,27091
60170.3,27086.7
60166.8,27082
60163.9,27077.1
60161.4,27071.8
60159.4,27066.4
60158,27060.7
60157.2,27055
60156.9,27049.2
60156.9,26478.3
60157.2,26472.6
60158,26466.8
60159.4,26461.2
60161.4,26455.7
60163.9,26450.5
60166.8,26445.5
60170.3,26440.9
60174.2,26436.6
60178.5,26432.7
60183.1,26429.2
60188.1,26426.3
60193.3,26423.8
60198.8,26421.8
60204.4,26420.4
60210.2,26419.6
60215.9,26419.3
60334.1,26419.3
Z" /> 
<path style="fill:#FFFFFF; fill-opacity:1.0; 
stroke:#FFFFFF; stroke-width:0; stroke-opacity:1; 
stroke-linecap:round; stroke-linejoin:round;fill-rule:evenodd;"
d="M 60839.8,26419.6
60845.6,26420.4
60851.2,26421.8
60856.7,26423.8
60861.9,26426.3
60866.9,26429.2
60871.5,26432.7
60875.8,26436.6
60879.7,26440.9
60883.2,26445.5
60886.1,26450.5
60888.6,26455.7
60890.6,26461.2
60892,26466.8
60892.8,26472.6
60893.1,26478.3
60893.1,27049.2
60892.8,27055
60892,27060.7
60890.6,27066.4
60888.6,27071.8
60886.1,27077.1
60883.2,27082
60879.7,27086.7
60875.8,27091
60871.5,27094.9
60866.9,27098.3
60861.9,27101.3
60856.7,27103.8
60851.2,27105.7
60845.6,27107.1
60839.8,27108
60834.1,27108.3
60715.9,27108.3
60710.2,27108
60704.4,27107.1
60698.8,27105.7
60693.3,27103.8
60688.1,27101.3
60683.1,27098.3
60678.5,27094.9
60674.2,27091
60670.3,27086.7
60666.8,27082
60663.9,27077.1
60661.4,27071.8
60659.4,27066.4
60658,27060.7
60657.2,27055
60656.9,27049.2
60656.9,26478.3
60657.2,26472.6
60658,26466.8
60659.4,26461.2
60661.4,26455.7
60663.9,26450.5
60666.8,26445.5
60670.3,26440.9
60674.2,26436.6
60678.5,26432.7
60683.1,26429.2
60688.1,26426.3
60693.3,26423.8
60698.8,26421.8
60704.4,26420.4
60710.2,26419.6
60715.9,26419.3
60834.1,26419.3
Z" /> 
<path style="fill:#FFFFFF; fill-opacity:1.0; 
stroke:#FFFFFF; stroke-width:0; stroke-opacity:1; 
stroke-linecap:round; stroke-linejoin:round;fill-rule:evenodd;"
d="M 61339.8,26419.6
61345.6,26420.4
61351.2,26421.8
61356.7,26423.8
61361.9,26426.3
61366.9,26429.2
61371.5,26432.7
61375.8,26436.6
61379.7,26440.9
61383.2,26445.5
61386.1,26450.5
61388.6,26455.7
61390.6,26461.2
61392,26466.8
61392.8,26472.6
61393.1,26478.3
61393.1,27049.2
61392.8,27055
61392,27060.7
61390.6,27066.4
61388.6,27071.8
61386.1,27077.1
61383.2,27082
61379.7,27086.7
61375.8,27091
61371.5,27094.9
61366.9,27098.3
61361.9,27101.3
61356.7,27103.8
61351.2,27105.7
61345.6,27107.1
61339.8,27108
61334.1,27108.3
61215.9,27108.3
61210.2,27108
61204.4,27107.1
61198.8,27105.7
61193.3,27103.8
61188.1,27101.3
61183.1,27098.3
61178.5,27094.9
61174.2,27091
61170.3,27086.7
61166.8,27082
61163.9,27077.1
61161.4,27071.8
61159.4,27066.4
61158,27060.7
61157.2,27055
61156.9,27049.2
61156.9,26478.3
61157.2,26472.6
61158,26466.8
61159.4,26461.2
61161.4,26455.7
61163.9,26450.5
61166.8,26445.5
61170.3,26440.9
61174.2,26436.6
61178.5,26432.7
61183.1,26429.2
61188.1,26426.3
61193.3,26423.8
61198.8,26421.8
61204.4,26420.4
61210.2,26419.6
61215.9,26419.3
61334.1,26419.3
Z" /> 
</g>
<g >
</g>
<g style="fill:#FFFFFF; fill-opacity:1.0; 
stroke:#FFFFFF; stroke-width:0; stroke-opacity:1; 
stroke-linecap:round; stroke-linejoin:round;">
<path style="fill:#FFFFFF; fill-opacity:1.0; 
stroke:#FFFFFF; stroke-width:0; stroke-opacity:1; 
stroke-linecap:round; stroke-linejoin:round;fill-rule:evenodd;"
d="M 63596.7,27127.6
63606.2,27129.1
63615.6,27131.4
63624.7,27134.7
63633.4,27138.8
63641.7,27143.8
63649.4,27149.5
63656.6,27156
63663.1,27163.2
63668.8,27170.9
63673.8,27179.2
63677.9,27187.9
63681.2,27197
63683.5,27206.4
63685,27215.9
63685.4,27225.6
63685.4,27422.4
63685,27432.1
63683.5,27441.6
63681.2,27451
63677.9,27460.1
63673.8,27468.8
63668.8,27477.1
63663.1,27484.9
63656.6,27492
63649.4,27498.5
63641.7,27504.3
63633.4,27509.2
63624.7,27513.4
63615.6,27516.6
63606.2,27519
63596.7,27520.4
63587,27520.9
63213,27520.9
63203.3,27520.4
63193.8,27519
63184.4,27516.6
63175.3,27513.4
63166.6,27509.2
63158.3,27504.3
63150.6,27498.5
63143.4,27492
63136.9,27484.9
63131.2,27477.1
63126.2,27468.8
63122.1,27460.1
63118.8,27451
63116.5,27441.6
63115,27432.1
63114.6,27422.4
63114.6,27225.6
63115,27215.9
63116.5,27206.4
63118.8,27197
63122.1,27187.9
63126.2,27179.2
63131.2,27170.9
63136.9,27163.2
63143.4,27156
63150.6,27149.5
63158.3,27143.8
63166.6,27138.8
63175.3,27134.7
63184.4,27131.4
63193.8,27129.1
63203.3,27127.6
63213,27127.2
63587,27127.2
Z" /> 
<path style="fill:#FFFFFF; fill-opacity:1.0; 
stroke:#FFFFFF; stroke-width:0; stroke-opacity:1; 
stroke-linecap:round; stroke-linejoin:round;fill-rule:evenodd;"
d="M 63596.7,26379.6
63606.2,26381
63615.6,26383.4
63624.7,26386.6
63633.4,26390.8
63641.7,26395.7
63649.4,26401.5
63656.6,26408
63663.1,26415.1
63668.8,26422.9
63673.8,26431.2
63677.9,26439.9
63681.2,26449
63683.5,26458.4
63685,26467.9
63685.4,26477.6
63685.4,26674.4
63685,26684.1
63683.5,26693.6
63681.2,26703
63677.9,26712.1
63673.8,26720.8
63668.8,26729.1
63663.1,26736.8
63656.6,26744
63649.4,26750.5
63641.7,26756.2
63633.4,26761.2
63624.7,26765.3
63615.6,26768.6
63606.2,26770.9
63596.7,26772.4
63587,26772.8
63213,26772.8
63203.3,26772.4
63193.8,26770.9
63184.4,26768.6
63175.3,26765.3
63166.6,26761.2
63158.3,26756.2
63150.6,26750.5
63143.4,26744
63136.9,26736.8
63131.2,26729.1
63126.2,26720.8
63122.1,26712.1
63118.8,26703
63116.5,26693.6
63115,26684.1
63114.6,26674.4
63114.6,26477.6
63115,26467.9
63116.5,26458.4
63118.8,26449
63122.1,26439.9
63126.2,26431.2
63131.2,26422.9
63136.9,26415.1
63143.4,26408
63150.6,26401.5
63158.3,26395.7
63166.6,26390.8
63175.3,26386.6
63184.4,26383.4
63193.8,26381
63203.3,26379.6
63213,26379.1
63587,26379.1
Z" /> 
</g>
<g >
</g>
<g >
</g>
<g >
</g>
<g >
</g>
<g style="fill:#FFFFFF; fill-opacity:1.0; 
stroke:#FFFFFF; stroke-width:0; stroke-opacity:1; 
stroke-linecap:round; stroke-linejoin:round;">
<path style="fill:#FFFFFF; fill-opacity:1.0; 
stroke:#FFFFFF; stroke-width:0; stroke-opacity:1; 
stroke-linecap:round; stroke-linejoin:round;fill-rule:evenodd;"
d="M 59221.7,25102.6
59231.2,25104.1
59240.6,25106.4
59249.7,25109.7
59258.4,25113.8
59266.7,25118.8
59274.4,25124.5
59281.6,25131
59288.1,25138.2
59293.8,25145.9
59298.8,25154.2
59302.9,25162.9
59306.2,25172
59308.5,25181.4
59310,25190.9
59310.4,25200.6
59310.4,25397.4
59310,25407.1
59308.5,25416.6
59306.2,25426
59302.9,25435.1
59298.8,25443.8
59293.8,25452.1
59288.1,25459.9
59281.6,25467
59274.4,25473.5
59266.7,25479.3
59258.4,25484.2
59249.7,25488.4
59240.6,25491.6
59231.2,25494
59221.7,25495.4
59212,25495.9
58838,25495.9
58828.3,25495.4
58818.8,25494
58809.4,25491.6
58800.3,25488.4
58791.6,25484.2
58783.3,25479.3
58775.6,25473.5
58768.4,25467
58761.9,25459.9
58756.2,25452.1
58751.2,25443.8
58747.1,25435.1
58743.8,25426
58741.5,25416.6
58740,25407.1
58739.6,25397.4
58739.6,25200.6
58740,25190.9
58741.5,25181.4
58743.8,25172
58747.1,25162.9
58751.2,25154.2
58756.2,25145.9
58761.9,25138.2
58768.4,25131
58775.6,25124.5
58783.3,25118.8
58791.6,25113.8
58800.3,25109.7
58809.4,25106.4
58818.8,25104.1
58828.3,25102.6
58838,25102.2
59212,25102.2
Z" /> 
<path style="fill:#FFFFFF; fill-opacity:1.0; 
stroke:#FFFFFF; stroke-width:0; stroke-opacity:1; 
stroke-linecap:round; stroke-linejoin:round;fill-rule:evenodd;"
d="M 59221.7,24354.6
59231.2,24356
59240.6,24358.4
59249.7,24361.6
59258.4,24365.8
59266.7,24370.7
59274.4,24376.5
59281.6,24383
59288.1,24390.1
59293.8,24397.9
59298.8,24406.2
59302.9,24414.9
59306.2,24424
59308.5,24433.4
59310,24442.9
59310.4,24452.6
59310.4,24649.4
59310,24659.1
59308.5,24668.6
59306.2,24678
59302.9,24687.1
59298.8,24695.8
59293.8,24704.1
59288.1,24711.8
59281.6,24719
59274.4,24725.5
59266.7,24731.2
59258.4,24736.2
59249.7,24740.3
59240.6,24743.6
59231.2,24745.9
59221.7,24747.4
59212,24747.8
58838,24747.8
58828.3,24747.4
58818.8,24745.9
58809.4,24743.6
58800.3,24740.3
58791.6,24736.2
58783.3,24731.2
58775.6,24725.5
58768.4,24719
58761.9,24711.8
58756.2,24704.1
58751.2,24695.8
58747.1,24687.1
58743.8,24678
58741.5,24668.6
58740,24659.1
58739.6,24649.4
58739.6,24452.6
58740,24442.9
58741.5,24433.4
58743.8,24424
58747.1,24414.9
58751.2,24406.2
58756.2,24397.9
58761.9,24390.1
58768.4,24383
58775.6,24376.5
58783.3,24370.7
58791.6,24365.8
58800.3,24361.6
58809.4,24358.4
58818.8,24356
58828.3,24354.6
58838,24354.1
59212,24354.1
Z" /> 
</g>
<g >
</g>
<g >
</g>
<g >
</g>
<g >
</g>
<g >
</g>
<g >
</g>
<g >
</g>
<g >
</g>
<g style="fill:#FFFFFF; fill-opacity:1.0; 
stroke:#FFFFFF; stroke-width:0; stroke-opacity:1; 
stroke-linecap:round; stroke-linejoin:round;">
<path style="fill:#FFFFFF; fill-opacity:1.0; 
stroke:#FFFFFF; stroke-width:0; stroke-opacity:1; 
stroke-linecap:round; stroke-linejoin:round;fill-rule:evenodd;"
d="M 58421.7,25102.6
58431.2,25104.1
58440.6,25106.4
58449.7,25109.7
58458.4,25113.8
58466.7,25118.8
58474.4,25124.5
58481.6,25131
58488.1,25138.2
58493.8,25145.9
58498.8,25154.2
58502.9,25162.9
58506.2,25172
58508.5,25181.4
58510,25190.9
58510.4,25200.6
58510.4,25397.4
58510,25407.1
58508.5,25416.6
58506.2,25426
58502.9,25435.1
58498.8,25443.8
58493.8,25452.1
58488.1,25459.9
58481.6,25467
58474.4,25473.5
58466.7,25479.3
58458.4,25484.2
58449.7,25488.4
58440.6,25491.6
58431.2,25494
58421.7,25495.4
58412,25495.9
58038,25495.9
58028.3,25495.4
58018.8,25494
58009.4,25491.6
58000.3,25488.4
57991.6,25484.2
57983.3,25479.3
57975.6,25473.5
57968.4,25467
57961.9,25459.9
57956.2,25452.1
57951.2,25443.8
57947.1,25435.1
57943.8,25426
57941.5,25416.6
57940,25407.1
57939.6,25397.4
57939.6,25200.6
57940,25190.9
57941.5,25181.4
57943.8,25172
57947.1,25162.9
57951.2,25154.2
57956.2,25145.9
57961.9,25138.2
57968.4,25131
57975.6,25124.5
57983.3,25118.8
57991.6,25113.8
58000.3,25109.7
58009.4,25106.4
58018.8,25104.1
58028.3,25102.6
58038,25102.2
58412,25102.2
Z" /> 
<path style="fill:#FFFFFF; fill-opacity:1.0; 
stroke:#FFFFFF; stroke-width:0; stroke-opacity:1; 
stroke-linecap:round; stroke-linejoin:round;fill-rule:evenodd;"
d="M 58421.7,24354.6
58431.2,24356
58440.6,24358.4
58449.7,24361.6
58458.4,24365.8
58466.7,24370.7
58474.4,24376.5
58481.6,24383
58488.1,24390.1
58493.8,24397.9
58498.8,24406.2
58502.9,24414.9
58506.2,24424
58508.5,24433.4
58510,24442.9
58510.4,24452.6
58510.4,24649.4
58510,24659.1
58508.5,24668.6
58506.2,24678
58502.9,24687.1
58498.8,24695.8
58493.8,24704.1
58488.1,24711.8
58481.6,24719
58474.4,24725.5
58466.7,24731.2
58458.4,24736.2
58449.7,24740.3
58440.6,24743.6
58431.2,24745.9
58421.7,24747.4
58412,24747.8
58038,24747.8
58028.3,24747.4
58018.8,24745.9
58009.4,24743.6
58000.3,24740.3
57991.6,24736.2
57983.3,24731.2
57975.6,24725.5
57968.4,24719
57961.9,24711.8
57956.2,24704.1
57951.2,24695.8
57947.1,24687.1
57943.8,24678
57941.5,24668.6
57940,24659.1
57939.6,24649.4
57939.6,24452.6
57940,24442.9
57941.5,24433.4
57943.8,24424
57947.1,24414.9
57951.2,24406.2
57956.2,24397.9
57961.9,24390.1
57968.4,24383
57975.6,24376.5
57983.3,24370.7
57991.6,24365.8
58000.3,24361.6
58009.4,24358.4
58018.8,24356
58028.3,24354.6
58038,24354.1
58412,24354.1
Z" /> 
</g>
<g >
</g>
<g style="fill:#FFFFFF; fill-opacity:1.0; 
stroke:#FFFFFF; stroke-width:0; stroke-opacity:1; 
stroke-linecap:round; stroke-linejoin:round;">
<circle cx="64950" cy="27325" r="314.961" /> 
</g>
<g style="fill:#FFFFFF; fill-opacity:1.0; 
stroke:#FFFFFF; stroke-width:7.87402; stroke-opacity:1; 
stroke-linecap:round; stroke-linejoin:round;">
</g>
<g style="fill:#FFFFFF; fill-opacity:1.0; 
stroke:#FFFFFF; stroke-width:0; stroke-opacity:1; 
stroke-linecap:round; stroke-linejoin:round;">
<circle cx="53450" cy="27250" r="314.961" /> 
</g>
<g style="fill:#FFFFFF; fill-opacity:1.0; 
stroke:#FFFFFF; stroke-width:7.87402; stroke-opacity:1; 
stroke-linecap:round; stroke-linejoin:round;">
</g>
<g style="fill:#FFFFFF; fill-opacity:1.0; 
stroke:#FFFFFF; stroke-width:0; stroke-opacity:1; 
stroke-linecap:round; stroke-linejoin:round;">
<circle cx="54725" cy="26800" r="314.961" /> 
</g>
<g style="fill:#FFFFFF; fill-opacity:1.0; 
stroke:#FFFFFF; stroke-width:7.87402; stroke-opacity:1; 
stroke-linecap:round; stroke-linejoin:round;">
</g>
<g style="fill:#FFFFFF; fill-opacity:1.0; 
stroke:#FFFFFF; stroke-width:0; stroke-opacity:1; 
stroke-linecap:round; stroke-linejoin:round;">
<circle cx="54725" cy="23400" r="314.961" /> 
</g>
<g style="fill:#FFFFFF; fill-opacity:1.0; 
stroke:#FFFFFF; stroke-width:7.87402; stroke-opacity:1; 
stroke-linecap:round; stroke-linejoin:round;">
</g>
<g style="fill:#FFFFFF; fill-opacity:1.0; 
stroke:#FFFFFF; stroke-width:0; stroke-opacity:1; 
stroke-linecap:round; stroke-linejoin:round;">
<circle cx="58150" cy="26825" r="314.961" /> 
</g>
<g style="fill:#FFFFFF; fill-opacity:1.0; 
stroke:#FFFFFF; stroke-width:7.87402; stroke-opacity:1; 
stroke-linecap:round; stroke-linejoin:round;">
</g>
<g style="fill:#FFFFFF; fill-opacity:1.0; 
stroke:#FFFFFF; stroke-width:0; stroke-opacity:1; 
stroke-linecap:round; stroke-linejoin:round;">
<circle cx="63350" cy="27950" r="314.961" /> 
</g>
<g style="fill:#FFFFFF; fill-opacity:1.0; 
stroke:#FFFFFF; stroke-width:7.87402; stroke-opacity:1; 
stroke-linecap:round; stroke-linejoin:round;">
</g>
<g >
</g>
<g style="fill:#FFFFFF; fill-opacity:1.0; 
stroke:#FFFFFF; stroke-width:7.87402; stroke-opacity:1; 
stroke-linecap:round; stroke-linejoin:round;">
</g>
<g style="fill:#FFFFFF; fill-opacity:1.0; 
stroke:#FFFFFF; stroke-width:393.701; stroke-opacity:1; 
stroke-linecap:round; stroke-linejoin:round;">
</g>
<g style="fill:#FFFFFF; fill-opacity:0.0; 
stroke:#FFFFFF; stroke-width:393.701; stroke-opacity:1; 
stroke-linecap:round; stroke-linejoin:round;">
<path d="M58975 27425
L58775 27225
" />
<path d="M58775 25549
L59025 25299
" />
</g>
<g style="fill:#FFFFFF; fill-opacity:0.0; 
stroke:#FFFFFF; stroke-width:196.85; stroke-opacity:1; 
stroke-linecap:round; stroke-linejoin:round;">
<path d="M60775 27375
L60725 27425
" />
<path d="M60775 26713
L60775 27375
" />
<path d="M59225 27375
L59175 27425
" />
<path d="M59225 26975
L59225 27375
" />
</g>
<g style="fill:#FFFFFF; fill-opacity:0.0; 
stroke:#FFFFFF; stroke-width:393.701; stroke-opacity:1; 
stroke-linecap:round; stroke-linejoin:round;">
<path d="M59175 27425
L58975 27425
" />
<path d="M60725 27425
L59175 27425
" />
</g>
<g style="fill:#FFFFFF; fill-opacity:0.0; 
stroke:#FFFFFF; stroke-width:196.85; stroke-opacity:1; 
stroke-linecap:round; stroke-linejoin:round;">
<path d="M57503 25299
L57499 25294
" />
<path d="M58225 25299
L57503 25299
" />
<path d="M57499 25294
L57499 26100
" />
<path d="M58225 25299
L58225 25925
" />
<path d="M58050 26100
L57499 26100
" />
<path d="M58225 25925
L58050 26100
" />
</g>
<g style="fill:#FFFFFF; fill-opacity:0.0; 
stroke:#FFFFFF; stroke-width:393.701; stroke-opacity:1; 
stroke-linecap:round; stroke-linejoin:round;">
<path d="M58225 25299
L59025 25299
" />
<path d="M58700 26100
L58775 26175
" />
<path d="M58775 26175
L58775 25549
" />
<path d="M58775 27225
L58775 26175
" />
<path d="M58225 26075
L58250 26100
" />
<path d="M58225 25299
L58225 26075
" />
<path d="M58250 26100
L58700 26100
" />
<path d="M57499 26100
L58250 26100
" />
<path d="M62950 27324
L63400 27324
" />
<path d="M62850 27425
L62950 27324
" />
<path d="M60725 27425
L62850 27425
" />
<path d="M63400 27324
L64800 27324
" />
<path d="M64950 27175
L64800 27324
" />
<path d="M64950 25925
L64950 27175
" />
<path d="M59160 24686
L59025 24550
" />
<path d="M59190 24537
L59338 24686
" />
<path d="M59338 24686
L59160 24686
" />
<path d="M60275 24686
L59338 24686
" />
</g>
<g style="fill:#FFFFFF; fill-opacity:0.0; 
stroke:#FFFFFF; stroke-width:196.85; stroke-opacity:1; 
stroke-linecap:round; stroke-linejoin:round;">
<path d="M57129 24550
L57125 24555
" />
<path d="M58225 24550
L57129 24550
" />
</g>
<g style="fill:#FFFFFF; fill-opacity:0.0; 
stroke:#FFFFFF; stroke-width:393.701; stroke-opacity:1; 
stroke-linecap:round; stroke-linejoin:round;">
<path d="M58665 24542
L58674 24550
" />
<path d="M58665 22675
L58665 24542
" />
<path d="M58674 24550
L59025 24550
" />
<path d="M58225 24550
L58674 24550
" />
<path d="M53450 27250
L53450 23300
" />
<path d="M53450 23300
L54025 22725
" />
<path d="M57125 22775
L57075 22725
" />
<path d="M57125 24555
L57125 22775
" />
<path d="M54025 22725
L57075 22725
" />
<path d="M58225 22775
L58175 22725
" />
<path d="M58225 24550
L58225 22775
" />
<path d="M58175 22725
L58665 22725
" />
<path d="M57075 22725
L58175 22725
" />
</g>
<g style="fill:#FFFFFF; fill-opacity:0.0; 
stroke:#FFFFFF; stroke-width:196.85; stroke-opacity:1; 
stroke-linecap:round; stroke-linejoin:round;">
<path d="M56750 25294
L56750 26100
" />
</g>
<g style="fill:#FFFFFF; fill-opacity:0.0; 
stroke:#FFFFFF; stroke-width:393.701; stroke-opacity:1; 
stroke-linecap:round; stroke-linejoin:round;">
<path d="M54750 26825
L54725 26800
" />
<path d="M54725 26800
L54725 23400
" />
<path d="M58150 27600
L58150 26825
" />
<path d="M58500 27950
L58150 27600
" />
<path d="M63350 27950
L58500 27950
" />
<path d="M56750 26749
L56675 26825
" />
<path d="M56750 26100
L56750 26749
" />
<path d="M56675 26825
L54750 26825
" />
<path d="M58150 26825
L56675 26825
" />
</g>
<g style="fill:#FFFFFF; fill-opacity:0.0; 
stroke:#FFFFFF; stroke-width:118.11; stroke-opacity:1; 
stroke-linecap:round; stroke-linejoin:round;">
<path d="M61374 25799
L59225 25799
" />
<path d="M61575 26000
L61374 25799
" />
<path d="M62300 26100
L62200 26000
" />
<path d="M62200 26000
L61575 26000
" />
<path d="M62300 26412
L62300 26100
" />
</g>
<g style="fill:#FFFFFF; fill-opacity:0.0; 
stroke:#FFFFFF; stroke-width:393.701; stroke-opacity:1; 
stroke-linecap:round; stroke-linejoin:round;">
<path d="M63750 26125
L63750 25625
" />
<path d="M63950 25425
L64950 25425
" />
<path d="M63750 25625
L63950 25425
" />
<path d="M62300 26337
L62662 26337
" />
<path d="M62900 26575
L63400 26575
" />
<path d="M62662 26337
L62900 26575
" />
<path d="M63537 26337
L63750 26125
" />
<path d="M62300 26337
L63537 26337
" />
<path d="M62148 24686
L62300 24837
" />
<path d="M61838 24686
L62148 24686
" />
<path d="M60775 24686
L61838 24686
" />
<path d="M61275 22765
L61184 22675
" />
<path d="M61275 24686
L61275 22765
" />
</g>
<g style="fill:#FFFFFF; fill-opacity:0.0; 
stroke:#FFFFFF; stroke-width:118.11; stroke-opacity:1; 
stroke-linecap:round; stroke-linejoin:round;">
<path d="M59225 26200
L59225 26574
" />
<path d="M59635 26574
L59775 26713
" />
<path d="M59225 26574
L59635 26574
" />
</g>
<g >
</g>
<g style="fill:#FFFFFF; fill-opacity:0.0; 
stroke:#FFFFFF; stroke-width:118.11; stroke-opacity:1; 
stroke-linecap:round; stroke-linejoin:round;">
<g >
</g>
<g style="fill:#FFFFFF; fill-opacity:1.0; 
stroke:#FFFFFF; stroke-width:100; stroke-opacity:1; 
stroke-linecap:round; stroke-linejoin:round;">
<path style="fill:#FFFFFF; fill-opacity:1.0; 
stroke:#FFFFFF; stroke-width:100; stroke-opacity:1; 
stroke-linecap:round; stroke-linejoin:round;fill-rule:evenodd;"
d="M 56678.1,24577.9
56684.6,24643.5
56710.2,24727.7
56724.1,24753.7
56701,24753.7
56701,24816.2
56638.5,24753.7
56632.9,24752.5
56583.9,24757.4
56536.7,24771.7
56493.3,24794.9
56455.2,24826.1
56424,24864.2
56400.8,24907.6
56386.5,24954.7
56381.7,25003.7
56382.9,25181.6
56445.4,25244.1
56701,25244.1
56701,25236.2
56801,25236.2
56801,25244.1
57056.6,25244.1
57119.1,25181.6
57119.7,25097.5
57129.7,25097.5
57129.7,25525.4
57135.7,25585.9
57150.6,25635.2
57150.6,25667.5
57125.5,25636.9
57115.9,25629.1
57120.3,25584.4
57119.1,25406.6
57056.6,25344.1
56801,25344.1
56801,26050
56808.9,26050
56808.9,26150
56801,26150
56801,26572.9
56863.5,26635.4
56947.8,26636.6
56996.8,26631.8
57044,26617.5
57087.4,26594.3
57125.5,26563.1
57151.2,26531.7
57153.4,26534.2
57206.3,26577.7
57266.8,26610
57332.4,26629.9
57400.6,26636.6
57597.4,26636.6
57665.7,26629.9
57731.2,26610
57791.7,26577.7
57829.3,26546.9
58228.1,26546.9
58250,26549
58271.9,26546.9
58328.2,26546.9
58328.1,27203.1
58326,27225
58328.1,27246.9
58334.6,27312.6
58360.2,27396.8
58401.7,27474.5
58457.5,27542.5
58474.6,27556.5
58643.5,27725.4
58657.5,27742.5
58725.5,27798.3
58803.2,27839.8
58887.4,27865.4
58953.1,27871.9
58953.1,27871.9
58975,27874
58996.9,27871.9
62828.1,27871.9
62850,27874
62871.9,27871.9
62871.9,27871.9
62937.6,27865.4
63021.8,27839.8
63099.5,27798.3
63132.9,27770.9
63200.7,27770.9
63213,27772.1
63587,27772.1
63599.3,27770.9
64350,27770.9
64350,28350
53250.4,28350
53255.2,27780.8
53285.2,27793.2
53394.4,27815
53505.6,27815
53614.8,27793.2
53717.6,27750.7
53810.1,27688.8
53888.8,27610.1
53950.7,27517.6
53993.2,27414.8
54015,27305.6
54015,27194.4
53993.2,27085.2
53950.7,26982.4
53896.9,26901.9
53896.9,26385.4
56302.9,26385.4
56307.8,26434.4
56322,26481.6
56345.3,26525
56376.5,26563.1
56414.6,26594.3
56458,26617.5
56505.1,26631.8
56554.1,26636.6
56638.5,26635.4
56701,26572.9
56701,26150
56366.6,26150
56304.1,26212.5
56302.9,26385.4
53896.9,26385.4
53896.9,25814.6
56302.9,25814.6
56304.1,25987.5
56366.6,26050
56701,26050
56701,25344.1
56445.4,25344.1
56382.9,25406.6
56381.7,25584.4
56386.1,25629.1
56376.5,25636.9
56345.3,25675
56322,25718.4
56307.8,25765.6
56302.9,25814.6
53896.9,25814.6
53896.9,23485.1
54210.1,23171.9
56678.2,23171.9
Z" /> 
</g>
</g>
</g>
<g style="fill:#000000; fill-opacity:1.0; 
stroke:#000000; stroke-width:100; stroke-opacity:1; 
stroke-linecap:round; stroke-linejoin:round;">
</g>
<g style="fill:#000000; fill-opacity:1.0; 
stroke:#000000; stroke-width:0; stroke-opacity:1; 
stroke-linecap:round; stroke-linejoin:round;">
<circle cx="64950" cy="27325" r="59.0551" /> 
</g>
<g style="fill:#000000; fill-opacity:1.0; 
stroke:#000000; stroke-width:7.87402; stroke-opacity:1; 
stroke-linecap:round; stroke-linejoin:round;">
</g>
<g style="fill:#000000; fill-opacity:1.0; 
stroke:#000000; stroke-width:0; stroke-opacity:1; 
stroke-linecap:round; stroke-linejoin:round;">
<circle cx="53450" cy="27250" r="59.0551" /> 
</g>
<g style="fill:#000000; fill-opacity:1.0; 
stroke:#000000; stroke-width:7.87402; stroke-opacity:1; 
stroke-linecap:round; stroke-linejoin:round;">
</g>
<g style="fill:#000000; fill-opacity:1.0; 
stroke:#000000; stroke-width:0; stroke-opacity:1; 
stroke-linecap:round; stroke-linejoin:round;">
<circle cx="54725" cy="26800" r="59.0551" /> 
</g>
<g style="fill:#000000; fill-opacity:1.0; 
stroke:#000000; stroke-width:7.87402; stroke-opacity:1; 
stroke-linecap:round; stroke-linejoin:round;">
</g>
<g style="fill:#000000; fill-opacity:1.0; 
stroke:#000000; stroke-width:0; stroke-opacity:1; 
stroke-linecap:round; stroke-linejoin:round;">
<circle cx="54725" cy="23400" r="59.0551" /> 
</g>
<g style="fill:#000000; fill-opacity:1.0; 
stroke:#000000; stroke-width:7.87402; stroke-opacity:1; 
stroke-linecap:round; stroke-linejoin:round;">
</g>
<g style="fill:#000000; fill-opacity:1.0; 
stroke:#000000; stroke-width:0; stroke-opacity:1; 
stroke-linecap:round; stroke-linejoin:round;">
<circle cx="58150" cy="26825" r="59.0551" /> 
</g>
<g style="fill:#000000; fill-opacity:1.0; 
stroke:#000000; stroke-width:7.87402; stroke-opacity:1; 
stroke-linecap:round; stroke-linejoin:round;">
</g>
<g style="fill:#000000; fill-opacity:1.0; 
stroke:#000000; stroke-width:0; stroke-opacity:1; 
stroke-linecap:round; stroke-linejoin:round;">
<circle cx="63350" cy="27950" r="59.0551" /> 
</g>
<g style="fill:#000000; fill-opacity:1.0; 
stroke:#000000; stroke-width:7.87402; stroke-opacity:1; 
stroke-linecap:round; stroke-linejoin:round;">
</g>
<g style="fill:#000000; fill-opacity:1.0; 
stroke:#000000; stroke-width:0; stroke-opacity:1; 
stroke-linecap:round; stroke-linejoin:round;">
<circle cx="64950" cy="25925" r="68.8976" /> 
</g>
<g style="fill:#000000; fill-opacity:1.0; 
stroke:#000000; stroke-width:7.87402; stroke-opacity:1; 
stroke-linecap:round; stroke-linejoin:round;">
</g>
<g style="fill:#000000; fill-opacity:1.0; 
stroke:#000000; stroke-width:0; stroke-opacity:1; 
stroke-linecap:round; stroke-linejoin:round;">
<circle cx="64950" cy="25425" r="68.8976" /> 
</g>
<g style="fill:#000000; fill-opacity:1.0; 
stroke:#000000; stroke-width:7.87402; stroke-opacity:1; 
stroke-linecap:round; stroke-linejoin:round;">
</g>
<g style="fill:#000000; fill-opacity:1.0; 
stroke:#000000; stroke-width:0; stroke-opacity:1; 
stroke-linecap:round; stroke-linejoin:round;">
<circle cx="52216.5" cy="24219.5" r="68.8976" /> 
</g>
<g style="fill:#000000; fill-opacity:1.0; 
stroke:#000000; stroke-width:7.87402; stroke-opacity:1; 
stroke-linecap:round; stroke-linejoin:round;">
</g>
<g style="fill:#000000; fill-opacity:1.0; 
stroke:#000000; stroke-width:0; stroke-opacity:1; 
stroke-linecap:round; stroke-linejoin:round;">
<circle cx="52216.5" cy="26030.5" r="68.8976" /> 
</g>
<g style="fill:#000000; fill-opacity:1.0; 
stroke:#000000; stroke-width:7.87402; stroke-opacity:1; 
stroke-linecap:round; stroke-linejoin:round;">
</g>
<g style="fill:#000000; fill-opacity:1.0; 
stroke:#000000; stroke-width:354.331; stroke-opacity:1; 
stroke-linecap:round; stroke-linejoin:round;">
</g>
<g style="fill:#000000; fill-opacity:0.0; 
stroke:#000000; stroke-width:354.331; stroke-opacity:1; 
stroke-linecap:round; stroke-linejoin:round;">
<path d="M52531 22880
L51901 22880
" />
<path d="M52531 27369
L51901 27369
" />
</g>
<g style="fill:#FFFFFF; fill-opacity:0.0; 
stroke:#FFFFFF; stroke-width:354.331; stroke-opacity:1; 
stroke-linecap:round; stroke-linejoin:round;">
</g> 
</svg>
