<?xml version="1.0" standalone="no"?>
 <!DOCTYPE svg PUBLIC "-//W3C//DTD SVG 1.1//EN" 
 "http://www.w3.org/Graphics/SVG/1.1/DTD/svg11.dtd"> 
<svg
  xmlns:svg="http://www.w3.org/2000/svg"
  xmlns="http://www.w3.org/2000/svg"
  xmlns:xlink="http://www.w3.org/1999/xlink"
  version="1.1"
  width="29.700220cm" height="21.000720cm" viewBox="0 0 116930 82680">
<title>SVG Picture created as remote-B_Cu.svg date 2022/04/19 19:42:27 </title>
  <desc>Picture generated by PCBNEW </desc>
<g style="fill:#000000; fill-opacity:1;stroke:#000000; stroke-opacity:1;
stroke-linecap:round; stroke-linejoin:round;"
 transform="translate(0 0) scale(1 1)">
</g>
<g style="fill:#000000; fill-opacity:0.0; 
stroke:#000000; stroke-width:-0.000393701; stroke-opacity:1; 
stroke-linecap:round; stroke-linejoin:round;">
</g>
<g style="fill:#000000; fill-opacity:1.0; 
stroke:#000000; stroke-width:7.87402; stroke-opacity:1; 
stroke-linecap:round; stroke-linejoin:round;">
<rect x="49533.5" y="16283.7" width="22804.9" height="11683.1" rx="0" />
</g>
<g style="fill:#FFFFFF; fill-opacity:1.0; 
stroke:#FFFFFF; stroke-width:7.87402; stroke-opacity:1; 
stroke-linecap:round; stroke-linejoin:round;">
<g >
</g>
<g style="fill:#FFFFFF; fill-opacity:1.0; 
stroke:#FFFFFF; stroke-width:0; stroke-opacity:1; 
stroke-linecap:round; stroke-linejoin:round;">
<circle cx="68050" cy="21900" r="354.331" /> 
</g>
<g style="fill:#FFFFFF; fill-opacity:1.0; 
stroke:#FFFFFF; stroke-width:7.87402; stroke-opacity:1; 
stroke-linecap:round; stroke-linejoin:round;">
</g>
<g style="fill:#FFFFFF; fill-opacity:1.0; 
stroke:#FFFFFF; stroke-width:0; stroke-opacity:1; 
stroke-linecap:round; stroke-linejoin:round;">
<circle cx="68050" cy="20900" r="354.331" /> 
</g>
<g style="fill:#FFFFFF; fill-opacity:1.0; 
stroke:#FFFFFF; stroke-width:7.87402; stroke-opacity:1; 
stroke-linecap:round; stroke-linejoin:round;">
</g>
<g style="fill:#FFFFFF; fill-opacity:1.0; 
stroke:#FFFFFF; stroke-width:0; stroke-opacity:1; 
stroke-linecap:round; stroke-linejoin:round;">
<path style="fill:#FFFFFF; fill-opacity:1.0; 
stroke:#FFFFFF; stroke-width:0; stroke-opacity:1; 
stroke-linecap:round; stroke-linejoin:round;fill-rule:evenodd;"
d="M 68316.1,19546.1
68325.6,19547.5
68334.9,19549.9
68344,19553.1
68352.6,19557.2
68360.9,19562.2
68368.6,19567.9
68375.7,19574.3
68382.1,19581.4
68387.8,19589.1
68392.8,19597.4
68396.9,19606
68400.1,19615.1
68402.5,19624.4
68403.9,19633.9
68404.3,19643.5
68404.3,20156.5
68403.9,20166.1
68402.5,20175.6
68400.1,20184.9
68396.9,20194
68392.8,20202.6
68387.8,20210.9
68382.1,20218.6
68375.7,20225.7
68368.6,20232.1
68360.9,20237.8
68352.6,20242.8
68344,20246.9
68334.9,20250.1
68325.6,20252.5
68316.1,20253.9
68306.5,20254.3
67793.5,20254.3
67783.9,20253.9
67774.4,20252.5
67765.1,20250.1
67756,20246.9
67747.4,20242.8
67739.1,20237.8
67731.4,20232.1
67724.3,20225.7
67717.9,20218.6
67712.2,20210.9
67707.2,20202.6
67703.1,20194
67699.9,20184.9
67697.5,20175.6
67696.1,20166.1
67695.7,20156.5
67695.7,19643.5
67696.1,19633.9
67697.5,19624.4
67699.9,19615.1
67703.1,19606
67707.2,19597.4
67712.2,19589.1
67717.9,19581.4
67724.3,19574.3
67731.4,19567.9
67739.1,19562.2
67747.4,19557.2
67756,19553.1
67765.1,19549.9
67774.4,19547.5
67783.9,19546.1
67793.5,19545.7
68306.5,19545.7
Z" /> 
</g>
<g >
</g>
<g style="fill:#FFFFFF; fill-opacity:1.0; 
stroke:#FFFFFF; stroke-width:0; stroke-opacity:1; 
stroke-linecap:round; stroke-linejoin:round;">
<circle cx="65500" cy="23880" r="334.646" /> 
<circle cx="66500" cy="23880" r="334.646" /> 
<path style="fill:#FFFFFF; fill-opacity:1.0; 
stroke:#FFFFFF; stroke-width:0; stroke-opacity:1; 
stroke-linecap:round; stroke-linejoin:round;fill-rule:evenodd;"
d="M 67834.6,24214.6
67165.4,24214.6
67165.4,23545.4
67834.6,23545.4
Z" /> 
</g>
<g >
</g>
<g >
</g>
<g >
</g>
<g style="fill:#FFFFFF; fill-opacity:1.0; 
stroke:#FFFFFF; stroke-width:0; stroke-opacity:1; 
stroke-linecap:round; stroke-linejoin:round;">
<path style="fill:#FFFFFF; fill-opacity:1.0; 
stroke:#FFFFFF; stroke-width:0; stroke-opacity:1; 
stroke-linecap:round; stroke-linejoin:round;fill-rule:evenodd;"
d="M 62072.3,23421.1
62077.7,23421.8
62082.9,23423.2
62088,23425
62092.9,23427.3
62097.6,23430.1
62101.9,23433.3
62105.9,23436.9
62109.5,23440.9
62112.8,23445.3
62115.5,23449.9
62117.9,23454.8
62119.7,23459.9
62121,23465.2
62121.8,23470.5
62122,23475.9
62122,23586.1
62121.8,23591.5
62121,23596.9
62119.7,23602.1
62117.9,23607.2
62115.5,23612.1
62112.8,23616.8
62109.5,23621.1
62105.9,23625.1
62101.9,23628.7
62097.6,23632
62092.9,23634.8
62088,23637.1
62082.9,23638.9
62077.7,23640.2
62072.3,23641
62066.9,23641.3
61933.1,23641.3
61927.7,23641
61922.3,23640.2
61917.1,23638.9
61912,23637.1
61907.1,23634.8
61902.4,23632
61898.1,23628.7
61894.1,23625.1
61890.5,23621.1
61887.2,23616.8
61884.5,23612.1
61882.1,23607.2
61880.3,23602.1
61879,23596.9
61878.2,23591.5
61878,23586.1
61878,23475.9
61878.2,23470.5
61879,23465.2
61880.3,23459.9
61882.1,23454.8
61884.5,23449.9
61887.2,23445.3
61890.5,23440.9
61894.1,23436.9
61898.1,23433.3
61902.4,23430.1
61907.1,23427.3
61912,23425
61917.1,23423.2
61922.3,23421.8
61927.7,23421.1
61933.1,23420.8
62066.9,23420.8
Z" /> 
<path style="fill:#FFFFFF; fill-opacity:1.0; 
stroke:#FFFFFF; stroke-width:0; stroke-opacity:1; 
stroke-linecap:round; stroke-linejoin:round;fill-rule:evenodd;"
d="M 62072.3,23799
62077.7,23799.8
62082.9,23801.1
62088,23802.9
62092.9,23805.2
62097.6,23808
62101.9,23811.3
62105.9,23814.9
62109.5,23818.9
62112.8,23823.2
62115.5,23827.9
62117.9,23832.8
62119.7,23837.9
62121,23843.1
62121.8,23848.5
62122,23853.9
62122,23964.1
62121.8,23969.5
62121,23974.8
62119.7,23980.1
62117.9,23985.2
62115.5,23990.1
62112.8,23994.7
62109.5,23999.1
62105.9,24003.1
62101.9,24006.7
62097.6,24009.9
62092.9,24012.7
62088,24015
62082.9,24016.8
62077.7,24018.2
62072.3,24018.9
62066.9,24019.2
61933.1,24019.2
61927.7,24018.9
61922.3,24018.2
61917.1,24016.8
61912,24015
61907.1,24012.7
61902.4,24009.9
61898.1,24006.7
61894.1,24003.1
61890.5,23999.1
61887.2,23994.7
61884.5,23990.1
61882.1,23985.2
61880.3,23980.1
61879,23974.8
61878.2,23969.5
61878,23964.1
61878,23853.9
61878.2,23848.5
61879,23843.1
61880.3,23837.9
61882.1,23832.8
61884.5,23827.9
61887.2,23823.2
61890.5,23818.9
61894.1,23814.9
61898.1,23811.3
61902.4,23808
61907.1,23805.2
61912,23802.9
61917.1,23801.1
61922.3,23799.8
61927.7,23799
61933.1,23798.7
62066.9,23798.7
Z" /> 
</g>
<g >
</g>
<g >
</g>
<g >
</g>
<g >
</g>
<g >
</g>
<g >
</g>
<g >
</g>
<g >
</g>
<g >
</g>
<g style="fill:#FFFFFF; fill-opacity:1.0; 
stroke:#FFFFFF; stroke-width:0; stroke-opacity:1; 
stroke-linecap:round; stroke-linejoin:round;">
<path style="fill:#FFFFFF; fill-opacity:1.0; 
stroke:#FFFFFF; stroke-width:0; stroke-opacity:1; 
stroke-linecap:round; stroke-linejoin:round;fill-rule:evenodd;"
d="M 62939.8,23729
62945.6,23729.9
62951.2,23731.3
62956.7,23733.2
62961.9,23735.7
62966.9,23738.7
62971.5,23742.1
62975.8,23746
62979.7,23750.3
62983.2,23755
62986.1,23760
62988.6,23765.2
62990.6,23770.7
62992,23776.3
62992.8,23782
62993.1,23787.8
62993.1,24250.4
62992.8,24256.2
62992,24261.9
62990.6,24267.5
62988.6,24273
62986.1,24278.2
62983.2,24283.2
62979.7,24287.9
62975.8,24292.2
62971.5,24296
62966.9,24299.5
62961.9,24302.5
62956.7,24305
62951.2,24306.9
62945.6,24308.3
62939.8,24309.2
62934.1,24309.4
62815.9,24309.4
62810.2,24309.2
62804.4,24308.3
62798.8,24306.9
62793.3,24305
62788.1,24302.5
62783.1,24299.5
62778.5,24296
62774.2,24292.2
62770.3,24287.9
62766.8,24283.2
62763.9,24278.2
62761.4,24273
62759.4,24267.5
62758,24261.9
62757.2,24256.2
62756.9,24250.4
62756.9,23787.8
62757.2,23782
62758,23776.3
62759.4,23770.7
62761.4,23765.2
62763.9,23760
62766.8,23755
62770.3,23750.3
62774.2,23746
62778.5,23742.1
62783.1,23738.7
62788.1,23735.7
62793.3,23733.2
62798.8,23731.3
62804.4,23729.9
62810.2,23729
62815.9,23728.7
62934.1,23728.7
Z" /> 
<path style="fill:#FFFFFF; fill-opacity:1.0; 
stroke:#FFFFFF; stroke-width:0; stroke-opacity:1; 
stroke-linecap:round; stroke-linejoin:round;fill-rule:evenodd;"
d="M 63313.9,22990.8
63319.6,22991.7
63325.2,22993.1
63330.7,22995
63335.9,22997.5
63340.9,23000.5
63345.5,23004
63349.8,23007.8
63353.7,23012.1
63357.2,23016.8
63360.2,23021.8
63362.6,23027
63364.6,23032.5
63366,23038.1
63366.8,23043.8
63367.1,23049.6
63367.1,23512.2
63366.8,23518
63366,23523.7
63364.6,23529.3
63362.6,23534.8
63360.2,23540
63357.2,23545
63353.7,23549.7
63349.8,23554
63345.5,23557.9
63340.9,23561.3
63335.9,23564.3
63330.7,23566.8
63325.2,23568.7
63319.6,23570.1
63313.9,23571
63308.1,23571.3
63190,23571.3
63184.2,23571
63178.4,23570.1
63172.8,23568.7
63167.4,23566.8
63162.1,23564.3
63157.2,23561.3
63152.5,23557.9
63148.2,23554
63144.3,23549.7
63140.9,23545
63137.9,23540
63135.4,23534.8
63133.4,23529.3
63132,23523.7
63131.2,23518
63130.9,23512.2
63130.9,23049.6
63131.2,23043.8
63132,23038.1
63133.4,23032.5
63135.4,23027
63137.9,23021.8
63140.9,23016.8
63144.3,23012.1
63148.2,23007.8
63152.5,23004
63157.2,23000.5
63162.1,22997.5
63167.4,22995
63172.8,22993.1
63178.4,22991.7
63184.2,22990.8
63190,22990.6
63308.1,22990.6
Z" /> 
<path style="fill:#FFFFFF; fill-opacity:1.0; 
stroke:#FFFFFF; stroke-width:0; stroke-opacity:1; 
stroke-linecap:round; stroke-linejoin:round;fill-rule:evenodd;"
d="M 62565.8,22990.8
62571.6,22991.7
62577.2,22993.1
62582.6,22995
62587.9,22997.5
62592.8,23000.5
62597.5,23004
62601.8,23007.8
62605.7,23012.1
62609.1,23016.8
62612.1,23021.8
62614.6,23027
62616.6,23032.5
62618,23038.1
62618.8,23043.8
62619.1,23049.6
62619.1,23512.2
62618.8,23518
62618,23523.7
62616.6,23529.3
62614.6,23534.8
62612.1,23540
62609.1,23545
62605.7,23549.7
62601.8,23554
62597.5,23557.9
62592.8,23561.3
62587.9,23564.3
62582.6,23566.8
62577.2,23568.7
62571.6,23570.1
62565.8,23571
62560,23571.3
62441.9,23571.3
62436.1,23571
62430.4,23570.1
62424.8,23568.7
62419.3,23566.8
62414.1,23564.3
62409.1,23561.3
62404.5,23557.9
62400.2,23554
62396.3,23549.7
62392.8,23545
62389.8,23540
62387.4,23534.8
62385.4,23529.3
62384,23523.7
62383.2,23518
62382.9,23512.2
62382.9,23049.6
62383.2,23043.8
62384,23038.1
62385.4,23032.5
62387.4,23027
62389.8,23021.8
62392.8,23016.8
62396.3,23012.1
62400.2,23007.8
62404.5,23004
62409.1,23000.5
62414.1,22997.5
62419.3,22995
62424.8,22993.1
62430.4,22991.7
62436.1,22990.8
62441.9,22990.6
62560,22990.6
Z" /> 
</g>
<g >
</g>
<g >
</g>
<g style="fill:#FFFFFF; fill-opacity:1.0; 
stroke:#FFFFFF; stroke-width:0; stroke-opacity:1; 
stroke-linecap:round; stroke-linejoin:round;">
<path style="fill:#FFFFFF; fill-opacity:1.0; 
stroke:#FFFFFF; stroke-width:0; stroke-opacity:1; 
stroke-linecap:round; stroke-linejoin:round;fill-rule:evenodd;"
d="M 60797.2,22899.9
60806.8,22901.3
60816.2,22903.6
60825.3,22906.9
60834,22911
60842.3,22916
60850,22921.8
60857.2,22928.2
60863.7,22935.4
60869.4,22943.2
60874.4,22951.4
60878.5,22960.2
60881.8,22969.3
60884.1,22978.6
60885.5,22988.2
60886,22997.8
60886,23352.2
60885.5,23361.8
60884.1,23371.4
60881.8,23380.7
60878.5,23389.8
60874.4,23398.6
60869.4,23406.8
60863.7,23414.6
60857.2,23421.8
60850,23428.2
60842.3,23434
60834,23439
60825.3,23443.1
60816.2,23446.4
60806.8,23448.7
60797.2,23450.1
60787.6,23450.6
60580.9,23450.6
60571.3,23450.1
60561.7,23448.7
60552.3,23446.4
60543.2,23443.1
60534.5,23439
60526.2,23434
60518.5,23428.2
60511.3,23421.8
60504.8,23414.6
60499.1,23406.8
60494.1,23398.6
60490,23389.8
60486.7,23380.7
60484.4,23371.4
60483,23361.8
60482.5,23352.2
60482.5,22997.8
60483,22988.2
60484.4,22978.6
60486.7,22969.3
60490,22960.2
60494.1,22951.4
60499.1,22943.2
60504.8,22935.4
60511.3,22928.2
60518.5,22921.8
60526.2,22916
60534.5,22911
60543.2,22906.9
60552.3,22903.6
60561.7,22901.3
60571.3,22899.9
60580.9,22899.4
60787.6,22899.4
Z" /> 
<path style="fill:#FFFFFF; fill-opacity:1.0; 
stroke:#FFFFFF; stroke-width:0; stroke-opacity:1; 
stroke-linecap:round; stroke-linejoin:round;fill-rule:evenodd;"
d="M 60078.7,22899.9
60088.3,22901.3
60097.7,22903.6
60106.8,22906.9
60115.5,22911
60123.8,22916
60131.5,22921.8
60138.7,22928.2
60145.2,22935.4
60150.9,22943.2
60155.9,22951.4
60160,22960.2
60163.3,22969.3
60165.6,22978.6
60167,22988.2
60167.5,22997.8
60167.5,23352.2
60167,23361.8
60165.6,23371.4
60163.3,23380.7
60160,23389.8
60155.9,23398.6
60150.9,23406.8
60145.2,23414.6
60138.7,23421.8
60131.5,23428.2
60123.8,23434
60115.5,23439
60106.8,23443.1
60097.7,23446.4
60088.3,23448.7
60078.7,23450.1
60069.1,23450.6
59862.4,23450.6
59852.8,23450.1
59843.2,23448.7
59833.8,23446.4
59824.7,23443.1
59816,23439
59807.7,23434
59800,23428.2
59792.8,23421.8
59786.3,23414.6
59780.6,23406.8
59775.6,23398.6
59771.5,23389.8
59768.2,23380.7
59765.9,23371.4
59764.5,23361.8
59764,23352.2
59764,22997.8
59764.5,22988.2
59765.9,22978.6
59768.2,22969.3
59771.5,22960.2
59775.6,22951.4
59780.6,22943.2
59786.3,22935.4
59792.8,22928.2
59800,22921.8
59807.7,22916
59816,22911
59824.7,22906.9
59833.8,22903.6
59843.2,22901.3
59852.8,22899.9
59862.4,22899.4
60069.1,22899.4
Z" /> 
</g>
<g >
</g>
<g >
</g>
<g >
</g>
<g >
</g>
<g style="fill:#FFFFFF; fill-opacity:1.0; 
stroke:#FFFFFF; stroke-width:0; stroke-opacity:1; 
stroke-linecap:round; stroke-linejoin:round;">
</g>
<g style="fill:#FFFFFF; fill-opacity:1.0; 
stroke:#FFFFFF; stroke-width:748.031; stroke-opacity:1; 
stroke-linecap:round; stroke-linejoin:round;">
</g>
<g style="fill:#FFFFFF; fill-opacity:0.0; 
stroke:#FFFFFF; stroke-width:748.031; stroke-opacity:1; 
stroke-linecap:round; stroke-linejoin:round;">
<path d="M59031 19455
L58401 19455
" />
<path d="M59031 23944
L58401 23944
" />
</g>
<g >
</g>
<g style="fill:#FFFFFF; fill-opacity:0.0; 
stroke:#FFFFFF; stroke-width:748.031; stroke-opacity:1; 
stroke-linecap:round; stroke-linejoin:round;">
</g>
<g style="fill:#FFFFFF; fill-opacity:0.0; 
stroke:#FFFFFF; stroke-width:0; stroke-opacity:1; 
stroke-linecap:round; stroke-linejoin:round;">
</g>
<g style="fill:#FFFFFF; fill-opacity:1.0; 
stroke:#FFFFFF; stroke-width:0; stroke-opacity:1; 
stroke-linecap:round; stroke-linejoin:round;">
<path style="fill:#FFFFFF; fill-opacity:1.0; 
stroke:#FFFFFF; stroke-width:0; stroke-opacity:1; 
stroke-linecap:round; stroke-linejoin:round;fill-rule:evenodd;"
d="M 60704.3,21104.7
59995.7,21104.7
59995.7,20120.5
60704.3,20120.5
Z" /> 
<path style="fill:#FFFFFF; fill-opacity:1.0; 
stroke:#FFFFFF; stroke-width:0; stroke-opacity:1; 
stroke-linecap:round; stroke-linejoin:round;fill-rule:evenodd;"
d="M 60704.3,22679.5
59995.7,22679.5
59995.7,21695.3
60704.3,21695.3
Z" /> 
</g>
<g >
</g>
<g >
</g>
<g style="fill:#FFFFFF; fill-opacity:1.0; 
stroke:#FFFFFF; stroke-width:0; stroke-opacity:1; 
stroke-linecap:round; stroke-linejoin:round;">
<path style="fill:#FFFFFF; fill-opacity:1.0; 
stroke:#FFFFFF; stroke-width:0; stroke-opacity:1; 
stroke-linecap:round; stroke-linejoin:round;fill-rule:evenodd;"
d="M 61596.7,23154.6
61606.2,23156
61615.6,23158.4
61624.7,23161.6
61633.4,23165.8
61641.7,23170.7
61649.4,23176.5
61656.6,23183
61663.1,23190.1
61668.8,23197.9
61673.8,23206.2
61677.9,23214.9
61681.2,23224
61683.5,23233.4
61685,23242.9
61685.4,23252.6
61685.4,23449.4
61685,23459.1
61683.5,23468.6
61681.2,23478
61677.9,23487.1
61673.8,23495.8
61668.8,23504.1
61663.1,23511.8
61656.6,23519
61649.4,23525.5
61641.7,23531.2
61633.4,23536.2
61624.7,23540.3
61615.6,23543.6
61606.2,23545.9
61596.7,23547.4
61587,23547.8
61213,23547.8
61203.3,23547.4
61193.8,23545.9
61184.4,23543.6
61175.3,23540.3
61166.6,23536.2
61158.3,23531.2
61150.6,23525.5
61143.4,23519
61136.9,23511.8
61131.2,23504.1
61126.2,23495.8
61122.1,23487.1
61118.8,23478
61116.5,23468.6
61115,23459.1
61114.6,23449.4
61114.6,23252.6
61115,23242.9
61116.5,23233.4
61118.8,23224
61122.1,23214.9
61126.2,23206.2
61131.2,23197.9
61136.9,23190.1
61143.4,23183
61150.6,23176.5
61158.3,23170.7
61166.6,23165.8
61175.3,23161.6
61184.4,23158.4
61193.8,23156
61203.3,23154.6
61213,23154.1
61587,23154.1
Z" /> 
<path style="fill:#FFFFFF; fill-opacity:1.0; 
stroke:#FFFFFF; stroke-width:0; stroke-opacity:1; 
stroke-linecap:round; stroke-linejoin:round;fill-rule:evenodd;"
d="M 61596.7,23902.6
61606.2,23904.1
61615.6,23906.4
61624.7,23909.7
61633.4,23913.8
61641.7,23918.8
61649.4,23924.5
61656.6,23931
61663.1,23938.2
61668.8,23945.9
61673.8,23954.2
61677.9,23962.9
61681.2,23972
61683.5,23981.4
61685,23990.9
61685.4,24000.6
61685.4,24197.4
61685,24207.1
61683.5,24216.6
61681.2,24226
61677.9,24235.1
61673.8,24243.8
61668.8,24252.1
61663.1,24259.9
61656.6,24267
61649.4,24273.5
61641.7,24279.3
61633.4,24284.2
61624.7,24288.4
61615.6,24291.6
61606.2,24294
61596.7,24295.4
61587,24295.9
61213,24295.9
61203.3,24295.4
61193.8,24294
61184.4,24291.6
61175.3,24288.4
61166.6,24284.2
61158.3,24279.3
61150.6,24273.5
61143.4,24267
61136.9,24259.9
61131.2,24252.1
61126.2,24243.8
61122.1,24235.1
61118.8,24226
61116.5,24216.6
61115,24207.1
61114.6,24197.4
61114.6,24000.6
61115,23990.9
61116.5,23981.4
61118.8,23972
61122.1,23962.9
61126.2,23954.2
61131.2,23945.9
61136.9,23938.2
61143.4,23931
61150.6,23924.5
61158.3,23918.8
61166.6,23913.8
61175.3,23909.7
61184.4,23906.4
61193.8,23904.1
61203.3,23902.6
61213,23902.2
61587,23902.2
Z" /> 
</g>
<g >
</g>
<g style="fill:#FFFFFF; fill-opacity:1.0; 
stroke:#FFFFFF; stroke-width:0; stroke-opacity:1; 
stroke-linecap:round; stroke-linejoin:round;">
<path style="fill:#FFFFFF; fill-opacity:1.0; 
stroke:#FFFFFF; stroke-width:0; stroke-opacity:1; 
stroke-linecap:round; stroke-linejoin:round;fill-rule:evenodd;"
d="M 62609.1,22190
62618.6,22191.5
62628,22193.8
62637.1,22197.1
62645.8,22201.2
62654.1,22206.2
62661.8,22211.9
62669,22218.4
62675.5,22225.6
62681.2,22233.3
62686.2,22241.6
62690.3,22250.3
62693.6,22259.4
62695.9,22268.8
62697.4,22278.3
62697.8,22288
62697.8,22662
62697.4,22671.7
62695.9,22681.2
62693.6,22690.6
62690.3,22699.7
62686.2,22708.4
62681.2,22716.7
62675.5,22724.4
62669,22731.6
62661.8,22738.1
62654.1,22743.8
62645.8,22748.8
62637.1,22752.9
62628,22756.2
62618.6,22758.5
62609.1,22760
62599.4,22760.4
62402.6,22760.4
62392.9,22760
62383.4,22758.5
62374,22756.2
62364.9,22752.9
62356.2,22748.8
62347.9,22743.8
62340.1,22738.1
62333,22731.6
62326.5,22724.4
62320.7,22716.7
62315.8,22708.4
62311.6,22699.7
62308.4,22690.6
62306,22681.2
62304.6,22671.7
62304.1,22662
62304.1,22288
62304.6,22278.3
62306,22268.8
62308.4,22259.4
62311.6,22250.3
62315.8,22241.6
62320.7,22233.3
62326.5,22225.6
62333,22218.4
62340.1,22211.9
62347.9,22206.2
62356.2,22201.2
62364.9,22197.1
62374,22193.8
62383.4,22191.5
62392.9,22190
62402.6,22189.6
62599.4,22189.6
Z" /> 
<path style="fill:#FFFFFF; fill-opacity:1.0; 
stroke:#FFFFFF; stroke-width:0; stroke-opacity:1; 
stroke-linecap:round; stroke-linejoin:round;fill-rule:evenodd;"
d="M 63357.1,22190
63366.6,22191.5
63376,22193.8
63385.1,22197.1
63393.8,22201.2
63402.1,22206.2
63409.9,22211.9
63417,22218.4
63423.5,22225.6
63429.3,22233.3
63434.2,22241.6
63438.4,22250.3
63441.6,22259.4
63444,22268.8
63445.4,22278.3
63445.9,22288
63445.9,22662
63445.4,22671.7
63444,22681.2
63441.6,22690.6
63438.4,22699.7
63434.2,22708.4
63429.3,22716.7
63423.5,22724.4
63417,22731.6
63409.9,22738.1
63402.1,22743.8
63393.8,22748.8
63385.1,22752.9
63376,22756.2
63366.6,22758.5
63357.1,22760
63347.4,22760.4
63150.6,22760.4
63140.9,22760
63131.4,22758.5
63122,22756.2
63112.9,22752.9
63104.2,22748.8
63095.9,22743.8
63088.2,22738.1
63081,22731.6
63074.5,22724.4
63068.8,22716.7
63063.8,22708.4
63059.7,22699.7
63056.4,22690.6
63054.1,22681.2
63052.6,22671.7
63052.2,22662
63052.2,22288
63052.6,22278.3
63054.1,22268.8
63056.4,22259.4
63059.7,22250.3
63063.8,22241.6
63068.8,22233.3
63074.5,22225.6
63081,22218.4
63088.2,22211.9
63095.9,22206.2
63104.2,22201.2
63112.9,22197.1
63122,22193.8
63131.4,22191.5
63140.9,22190
63150.6,22189.6
63347.4,22189.6
Z" /> 
</g>
<g >
</g>
<g style="fill:#FFFFFF; fill-opacity:1.0; 
stroke:#FFFFFF; stroke-width:0; stroke-opacity:1; 
stroke-linecap:round; stroke-linejoin:round;">
<circle cx="59940" cy="19580" r="314.961" /> 
</g>
<g style="fill:#FFFFFF; fill-opacity:1.0; 
stroke:#FFFFFF; stroke-width:7.87402; stroke-opacity:1; 
stroke-linecap:round; stroke-linejoin:round;">
</g>
<g style="fill:#FFFFFF; fill-opacity:1.0; 
stroke:#FFFFFF; stroke-width:0; stroke-opacity:1; 
stroke-linecap:round; stroke-linejoin:round;">
<circle cx="65100" cy="22725" r="314.961" /> 
</g>
<g style="fill:#FFFFFF; fill-opacity:1.0; 
stroke:#FFFFFF; stroke-width:7.87402; stroke-opacity:1; 
stroke-linecap:round; stroke-linejoin:round;">
</g>
<g style="fill:#FFFFFF; fill-opacity:1.0; 
stroke:#FFFFFF; stroke-width:0; stroke-opacity:1; 
stroke-linecap:round; stroke-linejoin:round;">
<circle cx="61700" cy="22725" r="314.961" /> 
</g>
<g style="fill:#FFFFFF; fill-opacity:1.0; 
stroke:#FFFFFF; stroke-width:7.87402; stroke-opacity:1; 
stroke-linecap:round; stroke-linejoin:round;">
</g>
<g style="fill:#FFFFFF; fill-opacity:1.0; 
stroke:#FFFFFF; stroke-width:0; stroke-opacity:1; 
stroke-linecap:round; stroke-linejoin:round;">
<circle cx="61600" cy="19400" r="314.961" /> 
</g>
<g style="fill:#FFFFFF; fill-opacity:1.0; 
stroke:#FFFFFF; stroke-width:7.87402; stroke-opacity:1; 
stroke-linecap:round; stroke-linejoin:round;">
</g>
<g style="fill:#FFFFFF; fill-opacity:1.0; 
stroke:#FFFFFF; stroke-width:0; stroke-opacity:1; 
stroke-linecap:round; stroke-linejoin:round;">
<circle cx="60175" cy="23875" r="314.961" /> 
</g>
<g style="fill:#FFFFFF; fill-opacity:1.0; 
stroke:#FFFFFF; stroke-width:7.87402; stroke-opacity:1; 
stroke-linecap:round; stroke-linejoin:round;">
</g>
<g >
</g>
<g style="fill:#FFFFFF; fill-opacity:1.0; 
stroke:#FFFFFF; stroke-width:7.87402; stroke-opacity:1; 
stroke-linecap:round; stroke-linejoin:round;">
</g>
<g style="fill:#FFFFFF; fill-opacity:1.0; 
stroke:#FFFFFF; stroke-width:196.85; stroke-opacity:1; 
stroke-linecap:round; stroke-linejoin:round;">
</g>
<g style="fill:#FFFFFF; fill-opacity:0.0; 
stroke:#FFFFFF; stroke-width:196.85; stroke-opacity:1; 
stroke-linecap:round; stroke-linejoin:round;">
<path d="M61400 23350
L61203 23154
" />
<path d="M61203 23154
L61203 19828
" />
<path d="M62430 23350
L62500 23280
" />
<path d="M62074 23350
L62430 23350
" />
<path d="M61400 23350
L62074 23350
" />
<path d="M62500 23280
L62500 22475
" />
<path d="M59815 19455
L59940 19580
" />
<path d="M58716 19455
L59815 19455
" />
<path d="M60955 19580
L61203 19828
" />
<path d="M59940 19580
L60955 19580
" />
</g>
<g style="fill:#FFFFFF; fill-opacity:0.0; 
stroke:#FFFFFF; stroke-width:118.11; stroke-opacity:1; 
stroke-linecap:round; stroke-linejoin:round;">
<path d="M62000 23425
L62074 23350
" />
<path d="M62000 23531
L62000 23425
" />
</g>
<g style="fill:#FFFFFF; fill-opacity:0.0; 
stroke:#FFFFFF; stroke-width:196.85; stroke-opacity:1; 
stroke-linecap:round; stroke-linejoin:round;">
<path d="M61775 21525
L61700 21600
" />
<path d="M61700 21600
L61700 22725
" />
<path d="M61700 19275
L61700 21600
" />
<path d="M65100 21550
L65075 21525
" />
<path d="M65100 22725
L65100 21550
" />
<path d="M65075 21525
L63600 21525
" />
<path d="M63249 23280
L63249 22475
" />
<path d="M63249 21575
L63300 21525
" />
<path d="M63249 22475
L63249 21575
" />
<path d="M63300 21525
L61775 21525
" />
<path d="M63600 21525
L63300 21525
" />
</g>
<g style="fill:#FFFFFF; fill-opacity:0.0; 
stroke:#FFFFFF; stroke-width:118.11; stroke-opacity:1; 
stroke-linecap:round; stroke-linejoin:round;">
<path d="M64850 22475
L65100 22725
" />
<path d="M63249 22475
L64850 22475
" />
</g>
<g style="fill:#FFFFFF; fill-opacity:0.0; 
stroke:#FFFFFF; stroke-width:196.85; stroke-opacity:1; 
stroke-linecap:round; stroke-linejoin:round;">
<path d="M60684 23868
L60684 23175
" />
<path d="M60914 24099
L60684 23868
" />
<path d="M61400 24099
L60914 24099
" />
<path d="M62795 24099
L62875 24019
" />
<path d="M62000 24050
L62049 24099
" />
<path d="M62049 24099
L62795 24099
" />
<path d="M61400 24099
L62049 24099
" />
</g>
<g style="fill:#FFFFFF; fill-opacity:0.0; 
stroke:#FFFFFF; stroke-width:118.11; stroke-opacity:1; 
stroke-linecap:round; stroke-linejoin:round;">
<path d="M62000 23908
L62000 24050
" />
<path d="M67425 24450
L67500 24375
" />
<path d="M60050 24450
L67425 24450
" />
<path d="M59600 20725
L59600 24000
" />
<path d="M67500 24375
L67500 23880
" />
<path d="M59712 20612
L59600 20725
" />
<path d="M59600 24000
L60050 24450
" />
<path d="M60350 20612
L59712 20612
" />
</g>
<g style="fill:#FFFFFF; fill-opacity:0.0; 
stroke:#FFFFFF; stroke-width:196.85; stroke-opacity:1; 
stroke-linecap:round; stroke-linejoin:round;">
<path d="M59965 23665
L60175 23875
" />
<path d="M59965 23175
L59965 23665
" />
<path d="M59965 23175
L59965 22571
" />
<path d="M60350 22187
L60012 22187
" />
<path d="M59965 22234
L59965 22571
" />
<path d="M60012 22187
L59965 22234
" />
</g>
<g >
</g>
<g style="fill:#FFFFFF; fill-opacity:0.0; 
stroke:#FFFFFF; stroke-width:196.85; stroke-opacity:1; 
stroke-linecap:round; stroke-linejoin:round;">
<g >
</g>
<g style="fill:#FFFFFF; fill-opacity:1.0; 
stroke:#FFFFFF; stroke-width:100; stroke-opacity:1; 
stroke-linecap:round; stroke-linejoin:round;">
<path style="fill:#FFFFFF; fill-opacity:1.0; 
stroke:#FFFFFF; stroke-width:100; stroke-opacity:1; 
stroke-linecap:round; stroke-linejoin:round;fill-rule:evenodd;"
d="M 69425.2,24475
67792.6,24475
67794.2,24469.8
67795.4,24465.9
67834.6,24465.9
67883.7,24461
67930.8,24446.7
67974.2,24423.5
68012.3,24392.3
68043.5,24354.2
68066.7,24310.8
68081,24263.7
68085.9,24214.6
68085.9,23545.4
68081,23496.3
68066.7,23449.2
68043.5,23405.8
68012.3,23367.7
67974.2,23336.5
67930.8,23313.3
67883.7,23299
67834.6,23294.1
67165.4,23294.1
67116.3,23299
67069.2,23313.3
67025.8,23336.5
66987.7,23367.7
66956.5,23405.8
66933.3,23449.2
66924.6,23477.8
66872.7,23425.9
66776.9,23361.9
66670.5,23317.8
66557.6,23295.4
66442.4,23295.4
66329.5,23317.8
66223.1,23361.9
66127.3,23425.9
66045.9,23507.3
66000,23576
65954.1,23507.3
65872.7,23425.9
65776.9,23361.9
65670.5,23317.8
65557.6,23295.4
65442.4,23295.4
65329.5,23317.8
65223.1,23361.9
65127.3,23425.9
65045.9,23507.3
64981.9,23603.1
64937.8,23709.5
64915.4,23822.4
64915.4,23937.6
64937.8,24050.5
64975.3,24140.9
63244.3,24140.9
63244.3,23787.8
63238.4,23727.3
63220.7,23669.1
63199,23628.5
63199,23330.9
63299,23330.9
63299,23758.8
63361.5,23821.3
63367.1,23822.5
63416.1,23817.6
63463.3,23803.3
63506.7,23780.1
63544.8,23748.9
63576,23710.8
63599.2,23667.4
63613.5,23620.3
63618.3,23571.3
63617.1,23393.4
63554.6,23330.9
63299,23330.9
63199,23330.9
62943.4,23330.9
62880.9,23393.4
62880.3,23477.5
62870.3,23477.5
62870.3,23049.6
62864.3,22989.1
62849.4,22939.8
62849.4,22907.5
62874.5,22938.1
62884.1,22945.9
62879.7,22990.6
62880.9,23168.4
62943.4,23230.9
63199,23230.9
63199,22525
63299,22525
63299,23230.9
63554.6,23230.9
63617.1,23168.4
63618.3,22990.6
63613.9,22945.9
63623.5,22938.1
63654.7,22900
63678,22856.6
63692.2,22809.4
63697.1,22760.4
63695.9,22587.5
63633.4,22525
63299,22525
63199,22525
63191.1,22525
63191.1,22425
63199,22425
63199,22002.1
63299,22002.1
63299,22425
63633.4,22425
63695.9,22362.5
63696.2,22318.9
67701.8,22318.9
67734.7,22419
67842,22470.5
67957.3,22500.1
68076.2,22506.7
68194.1,22489.9
68306.4,22450.5
68365.3,22419
68398.2,22318.9
68050,21970.7
67701.8,22318.9
63696.2,22318.9
63697.1,22189.6
63692.2,22140.6
63678,22093.4
63654.7,22050
63623.5,22011.9
63585.4,21980.7
63542,21957.5
63494.9,21943.2
63445.9,21938.4
63361.5,21939.6
63299,22002.1
63199,22002.1
63136.5,21939.6
63052.2,21938.4
63003.2,21943.2
62956,21957.5
62912.6,21980.7
62874.5,22011.9
62848.8,22043.3
62846.6,22040.8
62793.7,21997.3
62733.2,21965
62667.6,21945.1
62599.4,21938.4
62402.6,21938.4
62334.3,21945.1
62268.8,21965
62208.3,21997.3
62155.3,22040.8
62111.8,22093.7
62079.5,22154.2
62059.6,22219.8
62052.9,22288
62052.9,22662
62059.6,22730.2
62079.5,22795.8
62111.8,22856.3
62152.6,22905.9
62152.6,22939.8
62137.6,22989.1
62136.3,23002.6
61830.9,23002.6
61781.3,22961.8
61720.8,22929.5
61655.2,22909.6
61587,22902.9
61552,22902.9
61552,21926.2
67443.3,21926.2
67460.1,22044.1
67499.5,22156.4
67531,22215.3
67631.1,22248.2
67979.3,21900
68120.7,21900
68468.9,22248.2
68569,22215.3
68620.5,22108
68650.1,21992.7
68656.7,21873.8
68639.9,21755.9
68600.5,21643.6
68569,21584.7
68468.9,21551.8
68120.7,21900
67979.3,21900
67631.1,21551.8
67531,21584.7
67479.5,21692
67449.9,21807.3
67443.3,21926.2
61552,21926.2
61552,19845.7
61553.7,19828.6
61552,19811.5
61552,19811.5
61547,19760.3
61527.1,19694.6
61499.7,19643.5
67444.5,19643.5
67444.5,20156.5
67451.2,20224.6
67471,20290.1
67503.3,20350.4
67546.7,20403.3
67599.6,20446.7
67631.5,20463.8
67580.6,20514.8
67514.4,20613.7
67468.9,20723.7
67445.7,20840.5
67445.7,20959.5
67468.9,21076.3
67514.4,21186.3
67580.6,21285.2
67664.8,21369.4
67725.2,21409.8
67701.8,21481.1
68050,21829.3
68398.2,21481.1
68374.8,21409.8
68435.2,21369.4
68519.4,21285.2
68585.6,21186.3
68631.1,21076.3
68654.3,20959.5
68654.3,20840.5
68631.1,20723.7
68585.6,20613.7
68519.4,20514.8
68468.5,20463.8
68500.4,20446.7
68553.3,20403.3
68596.7,20350.4
68629,20290.1
68648.8,20224.6
68655.5,20156.5
68655.5,19643.5
68648.8,19575.4
68629,19509.9
68596.7,19449.6
68553.3,19396.7
68500.4,19353.3
68440.1,19321
68374.6,19301.2
68306.5,19294.5
67793.5,19294.5
67725.4,19301.2
67659.9,19321
67599.6,19353.3
67546.7,19396.7
67503.3,19449.6
67471,19509.9
67451.2,19575.4
67444.5,19643.5
61499.7,19643.5
61494.7,19634.1
61451.2,19581
61437.9,19570.1
61213.5,19345.7
61202.6,19332.4
61149.5,19288.9
61089,19256.5
61023.3,19236.6
60972.1,19231.6
60972.1,19231.6
60955,19229.9
60937.9,19231.6
60550,19231.6
60550,18925
69449.8,18925
Z" /> 
</g>
</g>
<g style="fill:#FFFFFF; fill-opacity:1.0; 
stroke:#FFFFFF; stroke-width:100; stroke-opacity:1; 
stroke-linecap:round; stroke-linejoin:round;">
<g >
<path style="fill:#FFFFFF; fill-opacity:1.0; 
stroke:#FFFFFF; stroke-width:100; stroke-opacity:1; 
stroke-linecap:round; stroke-linejoin:round;fill-rule:evenodd;"
d="M 60225,19869.3
59995.7,19869.3
59946.7,19874.1
59899.5,19888.4
59856.1,19911.6
59818,19942.8
59786.8,19980.9
59763.6,20024.3
59749.3,20071.5
59744.5,20120.5
59744.5,20303.5
59727.6,20303.5
59712.4,20302
59697.2,20303.5
59697.2,20303.5
59681.3,20305.1
59651.8,20308
59607.1,20321.6
59593.6,20325.7
59539.9,20354.4
59492.8,20393
59483.1,20404.8
59392.2,20495.7
59380.4,20505.4
59341.8,20552.5
59313.1,20606.2
59295.4,20664.4
59290.9,20709.8
59290.9,20709.8
59289.4,20725
59290.9,20740.2
59290.9,23376.7
59202.3,23341.8
59081.5,23320.1
58766.5,23320.1
58766.5,23894.1
58774.4,23894.1
58774.4,23994.1
58766.5,23994.1
58766.5,24002
58666.5,24002
58666.5,23994.1
58658.7,23994.1
58658.7,23894.1
58666.5,23894.1
58666.5,23320.1
58351.6,23320.1
58230.8,23341.8
58116.6,23386.7
58013.3,23453
57925,23538.2
57875,23610.1
57875,22559.6
58250,22559.6
58250,22651.5
58267.9,22741.6
58303.1,22826.5
58354.2,22902.9
58419.1,22967.9
58495.5,23019
58580.5,23054.1
58670.6,23072
58762.5,23072
58852.6,23054.1
58937.5,23019
59013.9,22967.9
59078.9,22902.9
59130,22826.5
59165.1,22741.6
59183.1,22651.5
59183.1,22559.6
59165.1,22469.4
59130,22384.5
59078.9,22308.1
59013.9,22243.1
58937.5,22192.1
58852.6,22156.9
58762.5,22139
58670.6,22139
58580.5,22156.9
58495.5,22192.1
58419.1,22243.1
58354.2,22308.1
58303.1,22384.5
58267.9,22469.4
58250,22559.6
57875,22559.6
57875,20748.5
58250,20748.5
58250,20840.4
58267.9,20930.6
58303.1,21015.5
58354.2,21091.9
58419.1,21156.9
58495.5,21207.9
58580.5,21243.1
58670.6,21261
58762.5,21261
58852.6,21243.1
58937.5,21207.9
59013.9,21156.9
59078.9,21091.9
59130,21015.5
59165.1,20930.6
59183.1,20840.4
59183.1,20748.5
59165.1,20658.4
59130,20573.5
59078.9,20497.1
59013.9,20432.1
58937.5,20381
58852.6,20345.9
58762.5,20328
58670.6,20328
58580.5,20345.9
58495.5,20381
58419.1,20432.1
58354.2,20497.1
58303.1,20573.5
58267.9,20658.4
58250,20748.5
57875,20748.5
57875,19789.9
57925,19861.8
58013.3,19947
58116.6,20013.3
58230.8,20058.2
58351.6,20079.9
58666.5,20079.9
58666.5,19505.9
58766.5,19505.9
58766.5,20079.9
59081.5,20079.9
59202.3,20058.2
59316.5,20013.3
59419.8,19947
59508.1,19861.8
59578.1,19761
59627.1,19648.5
59638,19602.6
59590.8,19505.9
58766.5,19505.9
58666.5,19505.9
58658.7,19505.9
58658.7,19405.9
58666.5,19405.9
58666.5,19398
58766.5,19398
58766.5,19405.9
59590.8,19405.9
59638,19309.2
59627.1,19263.3
59578.1,19150.8
59508.1,19050
59419.8,18964.8
59357.7,18925
60225,18925
Z" /> 
</g>
</g>
</g>
<g style="fill:#000000; fill-opacity:1.0; 
stroke:#000000; stroke-width:100; stroke-opacity:1; 
stroke-linecap:round; stroke-linejoin:round;">
</g>
<g style="fill:#000000; fill-opacity:1.0; 
stroke:#000000; stroke-width:0; stroke-opacity:1; 
stroke-linecap:round; stroke-linejoin:round;">
<circle cx="59940" cy="19580" r="59.0551" /> 
</g>
<g style="fill:#000000; fill-opacity:1.0; 
stroke:#000000; stroke-width:7.87402; stroke-opacity:1; 
stroke-linecap:round; stroke-linejoin:round;">
</g>
<g style="fill:#000000; fill-opacity:1.0; 
stroke:#000000; stroke-width:0; stroke-opacity:1; 
stroke-linecap:round; stroke-linejoin:round;">
<circle cx="65100" cy="22725" r="59.0551" /> 
</g>
<g style="fill:#000000; fill-opacity:1.0; 
stroke:#000000; stroke-width:7.87402; stroke-opacity:1; 
stroke-linecap:round; stroke-linejoin:round;">
</g>
<g style="fill:#000000; fill-opacity:1.0; 
stroke:#000000; stroke-width:0; stroke-opacity:1; 
stroke-linecap:round; stroke-linejoin:round;">
<circle cx="61700" cy="22725" r="59.0551" /> 
</g>
<g style="fill:#000000; fill-opacity:1.0; 
stroke:#000000; stroke-width:7.87402; stroke-opacity:1; 
stroke-linecap:round; stroke-linejoin:round;">
</g>
<g style="fill:#000000; fill-opacity:1.0; 
stroke:#000000; stroke-width:0; stroke-opacity:1; 
stroke-linecap:round; stroke-linejoin:round;">
<circle cx="61600" cy="19400" r="59.0551" /> 
</g>
<g style="fill:#000000; fill-opacity:1.0; 
stroke:#000000; stroke-width:7.87402; stroke-opacity:1; 
stroke-linecap:round; stroke-linejoin:round;">
</g>
<g style="fill:#000000; fill-opacity:1.0; 
stroke:#000000; stroke-width:0; stroke-opacity:1; 
stroke-linecap:round; stroke-linejoin:round;">
<circle cx="60175" cy="23875" r="59.0551" /> 
</g>
<g style="fill:#000000; fill-opacity:1.0; 
stroke:#000000; stroke-width:7.87402; stroke-opacity:1; 
stroke-linecap:round; stroke-linejoin:round;">
</g>
<g style="fill:#000000; fill-opacity:1.0; 
stroke:#000000; stroke-width:0; stroke-opacity:1; 
stroke-linecap:round; stroke-linejoin:round;">
<circle cx="68050" cy="21900" r="68.8976" /> 
</g>
<g style="fill:#000000; fill-opacity:1.0; 
stroke:#000000; stroke-width:7.87402; stroke-opacity:1; 
stroke-linecap:round; stroke-linejoin:round;">
</g>
<g style="fill:#000000; fill-opacity:1.0; 
stroke:#000000; stroke-width:0; stroke-opacity:1; 
stroke-linecap:round; stroke-linejoin:round;">
<circle cx="68050" cy="20900" r="68.8976" /> 
</g>
<g style="fill:#000000; fill-opacity:1.0; 
stroke:#000000; stroke-width:7.87402; stroke-opacity:1; 
stroke-linecap:round; stroke-linejoin:round;">
</g>
<g style="fill:#000000; fill-opacity:1.0; 
stroke:#000000; stroke-width:0; stroke-opacity:1; 
stroke-linecap:round; stroke-linejoin:round;">
<circle cx="68050" cy="19900" r="68.8976" /> 
</g>
<g style="fill:#000000; fill-opacity:1.0; 
stroke:#000000; stroke-width:7.87402; stroke-opacity:1; 
stroke-linecap:round; stroke-linejoin:round;">
</g>
<g style="fill:#000000; fill-opacity:1.0; 
stroke:#000000; stroke-width:0; stroke-opacity:1; 
stroke-linecap:round; stroke-linejoin:round;">
<circle cx="65500" cy="23880" r="68.8976" /> 
</g>
<g style="fill:#000000; fill-opacity:1.0; 
stroke:#000000; stroke-width:7.87402; stroke-opacity:1; 
stroke-linecap:round; stroke-linejoin:round;">
</g>
<g style="fill:#000000; fill-opacity:1.0; 
stroke:#000000; stroke-width:0; stroke-opacity:1; 
stroke-linecap:round; stroke-linejoin:round;">
<circle cx="66500" cy="23880" r="68.8976" /> 
</g>
<g style="fill:#000000; fill-opacity:1.0; 
stroke:#000000; stroke-width:7.87402; stroke-opacity:1; 
stroke-linecap:round; stroke-linejoin:round;">
</g>
<g style="fill:#000000; fill-opacity:1.0; 
stroke:#000000; stroke-width:0; stroke-opacity:1; 
stroke-linecap:round; stroke-linejoin:round;">
<circle cx="67500" cy="23880" r="68.8976" /> 
</g>
<g style="fill:#000000; fill-opacity:1.0; 
stroke:#000000; stroke-width:7.87402; stroke-opacity:1; 
stroke-linecap:round; stroke-linejoin:round;">
</g>
<g style="fill:#000000; fill-opacity:1.0; 
stroke:#000000; stroke-width:0; stroke-opacity:1; 
stroke-linecap:round; stroke-linejoin:round;">
<circle cx="58716.5" cy="20794.5" r="68.8976" /> 
</g>
<g style="fill:#000000; fill-opacity:1.0; 
stroke:#000000; stroke-width:7.87402; stroke-opacity:1; 
stroke-linecap:round; stroke-linejoin:round;">
</g>
<g style="fill:#000000; fill-opacity:1.0; 
stroke:#000000; stroke-width:0; stroke-opacity:1; 
stroke-linecap:round; stroke-linejoin:round;">
<circle cx="58716.5" cy="22605.5" r="68.8976" /> 
</g>
<g style="fill:#000000; fill-opacity:1.0; 
stroke:#000000; stroke-width:7.87402; stroke-opacity:1; 
stroke-linecap:round; stroke-linejoin:round;">
</g>
<g style="fill:#000000; fill-opacity:1.0; 
stroke:#000000; stroke-width:354.331; stroke-opacity:1; 
stroke-linecap:round; stroke-linejoin:round;">
</g>
<g style="fill:#000000; fill-opacity:0.0; 
stroke:#000000; stroke-width:354.331; stroke-opacity:1; 
stroke-linecap:round; stroke-linejoin:round;">
<path d="M59031 19455
L58401 19455
" />
<path d="M59031 23944
L58401 23944
" />
</g>
<g style="fill:#FFFFFF; fill-opacity:0.0; 
stroke:#FFFFFF; stroke-width:354.331; stroke-opacity:1; 
stroke-linecap:round; stroke-linejoin:round;">
</g> 
</svg>
